<?xml version="1.0" encoding="utf-8"?>
<!-- Generator: Adobe Illustrator 28.3.0, SVG Export Plug-In . SVG Version: 6.00 Build 0)  -->
<svg version="1.1" id="Layer_1" xmlns="http://www.w3.org/2000/svg" xmlns:xlink="http://www.w3.org/1999/xlink" x="0px" y="0px"
	 viewBox="0 0 1281.6748 1535.2104" style="enable-background:new 0 0 1281.6748 1535.2104;" xml:space="preserve">
<style type="text/css">
	.st0{fill:#E9B83A;}
	.st1{fill:#FFD44F;}
	.st2{fill:#FFFFFF;}
	.st3{fill:#231F20;}
	.st4{fill:#075E4E;}
	.st5{fill:#006D64;}
	.st6{fill:#F9F9FA;}
	.st7{fill:#D1D3D4;}
	.st8{fill:#D51149;}
	.st9{fill:#F15D57;}
	.st10{fill:#5A9D6E;}
</style>
<path class="st0" d="M951.1248,881.7c-1.09-4.62-6.3-10.45-10.49-14.53c-0.17-0.17-0.2-0.37-0.2-0.48s0.02-0.31,0.2-0.49
	c5.86-5.87,9.09-13.65,9.09-21.92c0-13.62-8.72-25.53-21.83-29.67c-2.26-1.37-11.04-6.4-28.96-13.51
	c-16.63-6.6-24.35-15.69-27.25-19.11c-0.89-1.05-1.34-1.58-1.82-1.85c-1.42-0.8-2.46-0.62-3.08-0.32c-0.48,0.23-1.33,0.85-1.58,2.37
	c-0.46,2.81,4.14,16.91,23.05,27.8c6.04,3.47,10.16,5.84,12.97,7.45c0.29,0.16,0.34,0.42,0.34,0.56c0,0.12-0.02,0.41-0.32,0.61
	l-0.69,0.48c-0.22,0.16-0.49,0.2-0.72,0.1c-3.58-1.63-15.68-7.31-21.1-12.17c-4.94-4.43-6.7-5.84-8.45-5.72
	c-1.09,0.08-1.79,0.77-2.21,1.29c-0.27,0.33-0.57,0.91-0.44,1.8c0.63,4.37,12.78,16.69,23.64,23.98c0.31,0.21,0.41,0.59,0.22,0.95
	c-0.09,0.17-0.25,0.29-0.43,0.35c-0.1714,0.0453-0.3538,0.0239-0.51-0.06c-1.66-0.95-4.24-2.6-7.24-5.12
	c-1.93-1.93-3.38-2.7-4.7-2.53c-0.58,0.08-1.39,0.38-1.96,1.4c-1.92,3.37,6.03,14.58,10.74,18.66c0.19,0.17,0.29,0.4,0.28,0.63
	c-0.03,0.54-0.05,1.1-0.05,1.65c0,11.89,6.64,22.55,17.3,27.82l0.42,0.28c3.27,2.01,8.88,2.85,14.81,3.74
	c3.09,0.47,6.29,0.95,8.95,1.59c4.44,1.08,7.89,4.09,10.65,6.52c1.75,1.53,3.13,2.74,4.44,3.14c0.53,0.16,1.08,0.24,1.63,0.24
	c1.5,0,3-0.6,4.09-1.68c1.19-1.19,1.65-2.78,1.22-4.25L951.1248,881.7z M801.4048,1115.8c-3.42,3.1801-6.59,6.62-9.62,10.17
	c-2.48,2.89-4.74,5.97-7.17,8.9c-0.97,1.17-2.12,2.1801-3.22,3.23c-0.45,0.4301-1.04,0.6-1.61,0.22s-0.98-0.9-0.72-1.63
	c0.32-0.88,0.67-1.75,1.06-2.59c8.72-18.78,20.72-35.5,32.91-52.0699c9.41-12.8,19.65-24.95,29.92-37.0699
	c1.2-1.42,2.36-2.87,3.51-4.26c-0.36-0.47-0.66-0.38-0.92-0.3c-6.94,2.1-14.12,2.78-21.26,3.6899c-1.22,0.16-2.42,0.4399-3.64,0.6
	c-0.93,0.12-1.85-0.02-2.13-1.08c-0.29-1.08,0.46-1.55,1.35-1.92c15.56-6.6,29.47-15.88,42.65-26.33
	c10.31-8.18,19.61-17.45,28.8-26.83c0.07-0.07,0.09-0.2,0.19-0.45c-2.6,0.26-5.12,0.51-7.64,0.77c-7.07,0.73-14.17,0.56-21.25,0.7
	c-1.03,0.02-2.66,0.37-2.8-1.06c-0.15-1.63,1.53-1.57,2.71-1.78c5.66-1.01,11.17-2.62,16.71-4.11c6.39-1.71,12.79-3.37,19.26-5.76
	c-1.47-0.68-2.78-1.21-4.01-1.89c-1.49-0.82-2.93-1.75-3.81-3.29c-0.2-0.35-0.46-0.79-0.22-1.16c0.27-0.41,0.76-0.17,1.14-0.08
	c1.7,0.42,3.38,1.01,5.1,1.29c6.94,1.14,13.68,0.21,20.16-2.38c3.14-1.25,5.47-3.79,8.14-5.79c5.72-4.29,11.5-8.49,17.37-12.58
	c0.46-0.32,1.26-0.52,1.15-1.19c-0.13-0.78-0.96-0.47-1.49-0.53c-4.14-0.5-8.28-0.99-12.3,0.72c-0.89,0.38-1.75,0.08-2.33-0.73
	c-0.59-0.82-0.44-1.66,0.07-2.47c1-1.58,2.68-2.34,4.41-3.52c-2.23-0.59-4.2-1.1-6.16-1.64c-11.2-3.11-22.09-7.06-32.73-11.73
	c-0.43-0.19-0.85-0.4-1.26-0.62c-0.59-0.33-0.83-0.86-0.59-1.48c0.27-0.68,0.8-0.97,1.56-0.72c2,0.66,4,1.36,6.02,1.94
	c13.76,3.94,27.77,6.45,42.11,6.23c12.57-0.19,24.83-2.41,36.52-7.23c0.53-0.22,1.14-0.29,1.6-0.93
	c-5.37-1.65-10.55-3.63-15.66-5.82c-7.86-3.38-15.44-7.27-22.76-11.71c-2.8-1.7-5.58-3.4-8.31-5.2c-0.64-0.42-1.49-0.87-0.99-1.75
	c0.56-1,1.41-0.44,2.14-0.04c14.26,7.7,29.53,12.26,45.5,14.67c1.73,0.26,3.47,0.51,5.32,0.77c0.02-0.88-0.56-1.34-0.9-1.88
	c-1.51-2.46-2.8-5.01-3.81-7.71c-0.26-0.7-0.35-1.48-0.4-2.24c-0.08-1.06,0.21-2.04,1.29-2.46c1.19-0.46,1.99,0.19,2.69,1.09
	c4.08,5.27,9.39,8.78,15.74,10.69c2.57,0.77,5.25,0.67,7.75-0.4c13.76-5.88,27.8-10.98,42.22-14.97
	c0.4301-0.12,1.0601-0.12,1.14-0.66c0.0699-0.52-0.49-0.75-0.89-0.97c-2.67-1.45-5.23-3.15-8.25-3.85
	c-0.99-0.23-2.03-0.58-1.9399-1.88c0.09-1.41,1.2-1.78,2.36-1.9c2.95-0.31,5.84,0.2,8.72,0.81c0.61,0.13,1.23,0.25,1.86,0.37
	c0.14-0.83-0.45-1.04-0.8101-1.37c-5.49-5.12-9.91-10.93-11.8199-18.37c-0.35-1.37-0.78-2.72-0.53-4.15
	c0.1899-1.11,0.7-2.04,1.92-2.24c1.23-0.2,1.9301,0.52,2.47,1.55c5.04,9.48,13.52,14.09,23.53,16.49c0.1,0.02,0.22-0.05,0.34-0.08
	c0.12-0.68-0.42-1.06-0.71-1.54c-3.16-5.13-5.79-10.46-6.58-16.53c-0.11-0.88-0.23-1.76,0.15-2.6c0.33-0.76,0.89-1.24,1.77-1.17
	c0.8,0.06,1.3,0.53,1.49,1.28c2.23,8.58,8.2,14.57,14.15,20.59c1.42,1.44,3.12,2.09,5.22,2.03c5.03-0.14,10.08,0.13,15.1-0.47
	s9.9301,0.55,14.87,1.04c6.61,0.66,12.5699,2.69,19.02,4.14c0.23,0.05,0.46,0.12,0.67,0.22c8.98,4.18,0.5699,5.7,9.8101,9.07
	c19.04,6.93,35.16,18,48.13,33.62c5.7,6.86,11.08,13.96,16.1801,21.26c7.8,11.19,12.38,23.54,12.38,37.3
	c0,16.22-6.35,29.86-17.73,41.19c-11.13,13.15-26.86,20.38-43.24,24.0699c-10.25,2.3101-37.79,0.55-50.3199-0.66
	c-13.33-1.28-26.53-1.28-39.89-1.3199c-10.5-0.03-20.99-0.53-31.4399,0.38c-11.2,0.97-21.68,2.42-32.84,3.9301
	c-7.77,1.05-41.99,9.4-51.06,12.5c-25.27,8.65-49.61,19.23-72.16,33.6899c-10.28,6.59-20.06,13.86-28.9,22.3199
	c-9.94,9.51-17.92,20.58-25.38,32.05c-17.82,27.39-29.34,57.27-35.17,89.39c-0.5,2.77-0.93,5.55-1.3,8.34
	c-0.37,2.78-0.63,5.58-0.94,8.4399c-0.36-0.14-0.61-0.7-0.71-1.0699c-4.89-17.1899-8.49-34.62-9.26-52.51
	c-0.48-11.17,1.16-22.22,3.17-33.1899c3.92-21.38,10.75-41.86,19.42-61.75c0.29-0.67,0.87-1.29,0.57-2.13
	c0.24,0.1,0.29,0.02,0.2-0.2l-0.17,0.24L801.4048,1115.8z M1052.2748,892.15l0.0699-0.07l-0.11-0.02L1052.2748,892.15z"/>
<path class="st0" d="M1052.2748,892.15l-0.04-0.09l0.12,0.02L1052.2748,892.15z M801.4048,1115.8l0.17-0.24
	c0.09,0.23,0.04,0.3101-0.2,0.2L801.4048,1115.8z"/>
<path class="st1" d="M1189.4447,962.3c-1.4399-8.47-4.6-16.45-7.65-24.43c-7.59-19.86-21.77-32.78-41.87-39.32
	c-11.4-3.71-7.09-4.87-16.6801-4.65l3.04-5.36l-15.5601-6.29l-15.23,0.99l-11.26,1.99l-2.21,5.61c-2.9-2.23-5.58-4.76-8.0601-7.54
	c-2.6899-3.01-5.41-6.01-7.63-9.41c-0.26-0.4-0.62-1.05-1.23-0.71c-0.64,0.36-0.21,0.95,0,1.39c1.15,2.44,2.28,4.87,3.76,7.14
	c2.8101,4.3,5.51,8.68,8.5601,12.82c-0.05,0.05-0.1,0.09-0.15,0.14c-7.05-1.77-13.46-5.01-19.6899-8.64
	c-3.85-2.24-7.6-4.65-10.39-8.25c-0.34-0.44-0.8199-0.77-1.36-0.36c-0.51,0.39-0.14,0.85,0.08,1.25c0.14,0.26,0.3101,0.5,0.48,0.73
	c3.74,5.03,7.5699,9.99,12.37,14.08c1.27,1.08,2.47,2.26,3.7,3.39c-0.34,0-0.6899,0.04-1-0.05c-4.39-1.29-8.97-1.63-13.38-2.81
	c-0.66-0.18-1.67-0.6-1.9301,0.48c-0.24,0.98,0.79,0.95,1.41,1.17c5.08,1.81,10.08,3.79,14.5601,6.89c0.42,0.29,1.13,0.44,1.1,1.01
	c-0.02,0.59-0.75,0.65-1.2,0.84c-7.8,3.35-15.61,6.68-23.42,10.02c-7.8199,3.35-15.24,7.49-22.79,11.36
	c-7.34,3.77-14.67,7.61-21.54,12.22c-6.27,4.21-12.46,8.55-18.75,12.72c-14.99,9.91-29.83,20-44.05,30.99
	c-11.87,9.17-23.4,18.72-34.47,28.83c-7.92,7.23-15.56,14.73-22.88,22.5699c-6.79,7.26-13.44,14.65-19.8,22.29
	c-6.36,7.65-12.42,15.52-18.24,23.6c-6.81,9.46-13.24,19.1801-19.05,29.27c-8.89,15.45-16.71,31.4301-22.6,48.3
	c-2.08,5.97-3.86,12.02-5.01,18.25c-1.0461,5.6263-1.9033,11.2861-2.57,16.97c-0.52,4.46-1.19,8.91-1.13,13.45
	c0.53-1.22,0.98-2.46,1.36-3.72c6.91-23.2,16.01-45.51,27.46-66.84c3.24-6.04,6.51-12.0699,11.25-17.15
	c0.92-0.99,1.94-1.88,3.18-2.4399c0.5-0.22,1.07-0.27,1.41,0.29c0.32,0.53-0.26,1.16-0.67,1.64c-1.2,1.49-2.5,3.42-3.14,4.49
	c-2.55,4.23-4.31,7.59-6.33,12.0699c-4.46,9.89-7.82,20.1899-11.32,30.4301c-0.25,0.75-1,1.58-0.35,2.5699
	c2.88-4.38,5.61-8.73,8.53-12.95c15.47-22.38,34.01-41.88,55.31-58.8101c17.1-13.59,35.58-24.89,55.39-34.05
	c16.83-7.78,34.2-14.08,52.05-19.0699c6.77-1.89,13.52-3.91,20.43-5.12c9.65-2.13,9.77-2.02,23.77-4.53
	c9.61-2.14,19.39-2.11,29.16-2.17c3.34-0.02,6.67-0.03,10.01-0.0601c9.3-0.0699,18.6-0.34,27.89,0.61
	c8.15,0.84,16.27,1.72,24.3101,3.36c5.38,1.09,15.7,3.24,24.29,2.04c14.64-2.04,25.8101-6.14,35.29-17.47
	c13.64-16.32,18.02-35.26,14.47-56.08L1189.4447,962.3z"/>
<path class="st2" d="M1044.9948,998.07c-0.5601,0.13-1.76,0.23-2.8,0.69c-6.54,2.88-13.0601,5.81-19.55,8.78
	c-0.9554,0.4449-1.8253,1.0541-2.57,1.8c-1.11,1.1-1.39,2.66-0.56,3.87c0.64,0.94,1.91,1.55,3.02,2.04
	c0.55,0.24,1.37-0.09,2.06-0.22c6.9-1.35,13.8-2.68,20.6801-4.09c1.24-0.25,2.51-0.7,3.59-1.34c2.5699-1.54,3.55-4.48,2.66-7.35
	c-0.78-2.51-3.02-4.08-6.51-4.16L1044.9948,998.07z M992.2247,1004.65c0.55-0.15,1.59-0.35,2.56-0.73
	c5.99-2.37,11.97-4.77,17.94-7.18c0.65-0.26,1.29-0.58,1.87-0.96c2.85-1.87,3.82-5.21,2.34-7.95c-1.41-2.62-4.54-3.67-7.62-2.53
	c-0.65,0.24-1.29,0.58-1.86,0.98c-5.38,3.75-10.75,7.51-16.09,11.32c-0.84,0.6-1.67,1.35-2.21,2.22c-1.35,2.19,0,4.63,3.06,4.84
	L992.2247,1004.65z M1056.5947,964.34c0.21-4.09-3.29-7.15-7.3199-6.33c-1.02,0.21-2.04,0.59-2.95,1.08
	c-5.0601,2.7-10.11,5.44-15.14,8.2c-0.92,0.5-1.8,1.1-2.62,1.77c-1.63,1.33-2.11,2.92-1.33,4.28c0.9,1.57,2.34,1.77,3.97,1.4
	c6.84-1.58,13.6801-3.14,20.51-4.74c3-0.7,4.74-2.77,4.88-5.65L1056.5947,964.34z M1014.8748,952.88c0.16-4.01-3.41-6.78-7.3-5.56
	c-1.08,0.34-2.13,0.98-3.03,1.69c-4.11,3.27-8.17,6.61-12.23,9.95c-0.81,0.67-1.56,1.42-2.25,2.2c-1.11,1.25-1.54,2.68-0.45,4.13
	c1.15,1.53,2.6,1.12,4.09,0.46c5.76-2.54,11.53-5.05,17.31-7.55c2.36-1.02,3.77-2.68,3.85-5.33h0.01V952.88z M969.9847,1020.57
	c-0.68,0.27-1.97,0.57-3.02,1.24c-4.53,2.89-9,5.8799-13.48,8.8701c-0.67,0.45-1.33,0.99-1.81,1.63c-1.34,1.79-0.43,3.88,1.79,4.09
	c0.79,0.0699,1.65-0.08,2.4-0.35c5.17-1.86,10.34-3.74,15.46-5.72c1.05-0.41,2.08-1.12,2.86-1.9399c1.32-1.39,1.5-3.13,0.79-4.91
	c-0.7-1.75-2.54-2.94-5-2.94v0.03L969.9847,1020.57z M973.9147,994c0.25-3.78-3.7-6.41-7-4.21c-4.75,3.16-9.12,6.89-13.59,10.46
	c-1.04,0.83-1.66,2.09-0.68,3.4c0.95,1.27,2.18,0.98,3.47,0.45c4.86-2,9.73-3.94,14.6-5.91c1.9-0.76,3.06-2.09,3.19-4.2h0.01
	L973.9147,994z"/>
<path d="M1044.9948,998.07c3.49,0.08,5.73,1.65,6.51,4.16c0.89,2.87-0.09,5.81-2.66,7.35c-1.08,0.65-2.35,1.09-3.59,1.34
	c-6.88,1.41-13.78,2.75-20.6801,4.09c-0.69,0.13-1.51,0.46-2.06,0.22c-1.11-0.49-2.38-1.1-3.02-2.04c-0.83-1.21-0.56-2.77,0.56-3.87
	c0.74-0.73,1.63-1.37,2.57-1.8c6.4999-2.97,13.0099-5.91,19.55-8.78c1.05-0.46,2.25-0.56,2.8-0.69L1044.9948,998.07z
	 M992.2247,1004.65c-3.06-0.21-4.42-2.65-3.06-4.84c0.54-0.87,1.37-1.62,2.21-2.22c5.34-3.81,10.71-7.56,16.09-11.32
	c0.57-0.4,1.21-0.73,1.86-0.98c3.07-1.15,6.2-0.09,7.62,2.53c1.48,2.74,0.51,6.08-2.34,7.95c-0.58,0.38-1.22,0.7-1.87,0.96
	c-5.97,2.41-11.95,4.82-17.94,7.18c-0.97,0.38-2.01,0.58-2.56,0.73L992.2247,1004.65z M1056.5947,964.34
	c-0.14,2.88-1.88,4.95-4.88,5.65c-6.83,1.6-13.67,3.16-20.51,4.74c-1.63,0.38-3.0601,0.17-3.97-1.4c-0.78-1.36-0.3-2.95,1.33-4.28
	c0.8101-0.66,1.7-1.26,2.62-1.77c5.03-2.76,10.0699-5.5,15.14-8.2c0.92-0.49,1.9399-0.87,2.95-1.08c4.03-0.82,7.52,2.24,7.3199,6.33
	L1056.5947,964.34z M1014.8748,952.88c-0.08,2.65-1.49,4.31-3.85,5.33c-5.78,2.49-11.55,5.01-17.31,7.55
	c-1.49,0.66-2.95,1.07-4.09-0.46c-1.09-1.45-0.66-2.88,0.45-4.13c0.7-0.78,1.45-1.53,2.25-2.2c4.06-3.34,8.12-6.68,12.23-9.95
	c0.9-0.71,1.95-1.35,3.03-1.69c3.88-1.22,7.45,1.55,7.3,5.56h-0.01V952.88z M969.9847,1020.57c2.45,0,4.3,1.19,5,2.94
	c0.71,1.77,0.54,3.52-0.79,4.91c-0.78,0.8199-1.81,1.53-2.86,1.9399c-5.13,1.98-10.29,3.85-15.46,5.72
	c-0.75,0.27-1.61,0.42-2.4,0.35c-2.22-0.21-3.13-2.3-1.79-4.09c0.48-0.64,1.14-1.1899,1.81-1.63c4.47-2.99,8.94-5.98,13.48-8.87
	c1.05-0.67,2.34-0.97,3.02-1.24v-0.03L969.9847,1020.57z M973.9147,994c-0.13,2.11-1.3,3.43-3.2,4.2c-4.87,1.97-9.75,3.91-14.6,5.91
	c-1.29,0.53-2.52,0.82-3.47-0.45c-0.98-1.31-0.36-2.57,0.68-3.4c4.47-3.57,8.84-7.31,13.59-10.46c3.31-2.2,7.25,0.43,7,4.21
	L973.9147,994z"/>
<path class="st3" d="M1238.5148,972.29c3.42-23.44-23.17-52.14-36.01-59.35c-0.83-0.46-5.33-3.38-9.22-5.47
	c-1.01-0.54-1.99-1.05-2.83-1.45c-2.54-1.11-4.98-2.17-7.34-3.18c-0.6899-0.29-1.3199-0.56-2-0.84c-1.63-0.69-3.25-1.38-4.8101-2.02
	c-0.84-0.35-1.62-0.67-2.4399-1c-1.3199-0.54-2.65-1.09-3.92-1.6c-0.86-0.35-1.6801-0.67-2.51-1c-1.15-0.46-2.3-0.92-3.41-1.35
	c-0.85-0.33-1.67-0.65-2.49-0.96c-1.04-0.4-2.08-0.8-3.08-1.18c-0.8-0.3-1.59-0.59-2.37-0.88c-0.96-0.36-1.92-0.71-2.85-1.05
	c-0.77-0.28-1.53-0.55-2.29-0.82c-0.89-0.32-1.78-0.63-2.64-0.93c-0.73-0.25-1.45-0.5-2.16-0.75c-0.85-0.29-1.6801-0.57-2.51-0.85
	c-0.6899-0.23-1.38-0.46-2.0601-0.69c-0.8199-0.27-1.62-0.53-2.41-0.78c-0.64-0.21-1.28-0.41-1.91-0.61
	c-0.8199-0.26-1.63-0.51-2.4399-0.76c-0.58-0.18-1.16-0.36-1.73-0.53c-0.84-0.26-1.67-0.5-2.49-0.75c-0.51-0.15-1.03-0.31-1.53-0.46
	c-0.95-0.28-1.89-0.56-2.83-0.83c-0.36-0.11-0.73-0.21-1.09-0.32c-1.12-0.32-2.23-0.64-3.34-0.96
	c-0.1899-0.05-0.38-0.11-0.5699-0.16c-2.38-0.68-4.76-1.35-7.17-2.04l-0.41-0.12c-20.99-7.53-33.52-10.9-35.15-12.38
	c-2.86-2.6-8.96-16.34-10.22-19.2c-1.946-3.1257-3.9531-6.213-6.02-9.26c-13.11-19.29-28.1899-36.91-44.84-53.25
	c-10.49-10.28-21.26-20.22-32.54-29.63c-2.79-2.33-2.79-2.35-0.97-5.47c3.35-5.76,5.12-12.08,6.55-18.52
	c0.2-0.9,0.56-1.94-0.53-2.51c-1-0.52-1.78,0.17-2.54,0.73c-0.19,0.14-0.36,0.3-0.53,0.46c-3.61,3.41-7.85,5.96-12.07,8.51
	c-1.6,0.96-3.35,1.7-5.08,2.42c-1.01,0.42-2.18,0.52-2.89-0.5c-0.7-1.01,0.3-1.75,0.81-2.46c3.39-4.67,6.5-9.51,8.89-14.76
	c3.84-8.45,7.4-17.02,10.14-25.9c0.73-2.35,1.3-4.76,1.87-7.15c0.15-0.65,0.28-1.46-0.54-1.85c-0.62-0.3-1.12,0.14-1.61,0.45
	c-2.97,1.89-5.9,3.85-8.92,5.66c-6.06,3.64-12.72,6.05-18.99,9.25c-9.25,4.74-19.05,7.2-29.28,8.37c-2.12,0.24-3.91-0.15-5.68-1.25
	c-4.09-2.54-8.21-5.03-12.33-7.51c-24.19-14.58-49.37-27.19-75.59-37.67c-3.33-1.33-5.56-3.33-7.02-6.42
	c-0.75-1.59-1.44-3.21-2.1-4.85c-3.48-8.65-5.52-17.68-7.23-26.82c-3.03-16.2-5.62-32.4-3.91-48.97c0.05-0.46,0.03-0.94-0.01-1.41
	c-0.1-0.98-0.39-1.89-1.47-2.17s-2.03,0.19-2.89,1.14c-1.44,1.58-9.57,9.14-12.17,12.03c-4.02,4.46-7.41,9.4-11.03,14.18
	c-8.53,11.27-15.28,23.52-21.79,36.11c-1.42,2.75-5,2.88-7.02,1.49c-2.39-1.66-2.37-6.15-2.5-8.29
	c-0.83-14.49,0.32-28.86,2.62-43.15c1.46-9.04,3.14-18.04,4.84-27.03c2.33-12.35,4.87-24.65,9.27-36.48
	c0.28-0.75,1.07-1.77,0.25-2.53c-0.87-0.58-1.67,0.62-2.28,1.1c-7.77,6.1-14.95,12.86-21.89,19.87
	c-10.52,10.62-20.08,22.05-28.56,34.36c-7.6,11.03-14.73,22.36-20.58,34.45c-1.22,2.52-2.13,2.86-4.77,1.71
	c-2.91-1.26-5.71-2.76-8.6-4.07c-11.56-5.24-23.29-10.27-33.94-17.16c-32.2-20.82-58.25-45.09-86.57-81.33
	c-9.54-12.21-36.3-48.88-38.3-58.21c-0.53-2.48-1.23-4.29-2.98-4.07c-2.1,0.25-2.92,4.22-4.23,6.78
	c-0.16,0.31-8.76,25.95-11.04,30.42c-6.02,11.78-11.22,17.44-20.18,27.11c-16.37,17.67-29.81,37.13-38.78,59.57
	c-8.64,21.61-14.6,43.86-16.15,67.18c-0.23,3.42-0.55,3.7-4.11,3.61c-2.11-0.05-31.52-0.66-36.19-0.27
	c-21.37,1.77-42.32,5.87-62.94,11.69c-16.06,4.53-31.79,10.03-47.21,16.45c-14.87,6.19-29.34,13.2-43.44,20.96
	c-18.12,9.97-35.65,20.91-52.83,32.42c-16.41,11-32.11,22.94-46.97,35.9s-28.92,26.8-41.99,41.63
	c-17.01,19.28-31.85,40.01-44.08,62.66c-10.13,18.76-17.29,38.53-21.5,59.39c-1.44,7.14-2.24,14.38-2.5,21.67
	c-0.07,1.98,0.26,3.79,2.19,4.82c1.88,1,3.63,0.51,5.31-0.58c1.49-0.97,2.74-2.21,3.97-3.47c6.13-6.32,12.42-12.47,18.94-18.39
	c14.96-13.59,30.6-26.32,46.8-38.4c19.19-14.31,39.69-26.35,61.21-36.74c16.11-7.78,32.64-14.45,49.78-19.58
	c6.97-2.09,13.97-4.13,21.09-5.65c3.45-0.74,3.72-0.4,2.73,3.08c-1.12,3.95-2.28,7.89-3.37,11.86c-3.9,14.19-6.38,28.66-7.52,43.3
	c-1.14,14.63-1.2,29.29,0.39,43.96c1.62,15.01,4.41,29.72,9.11,44.07c0.73,2.23,1.59,4.42,2.4,6.62c0.44,1.19,0.04,1.81-1.24,1.82
	c-0.59,0-1.17,0-1.76-0.01c-14.58-0.17-29.08-1.48-43.47-3.75c-21.53-3.4-42.53-8.91-62.74-17.13
	c-16.06-6.54-31.25-14.67-44.66-25.82c-0.63-0.52-1.27-1.06-1.98-1.46c-2.07-1.18-3.29-0.59-3.74,1.79
	c-0.44,2.35-0.08,4.67,0.37,6.99c2.64,13.58,8.24,25.93,15.64,37.49c12.23,19.11,27.76,35.13,45.96,48.62
	c16.32,12.1,34.01,21.74,52.72,29.5699c1.11,0.46,2.35,0.77,3.45,1.91c-0.71,0.0601-1.07,0.15-1.4,0.1
	c-1.86-0.25-3.72-0.54-5.58-0.8c-20.19-2.8101-39.9-7.5601-58.99-14.78c-20.06-7.58-38.51-17.9301-54.72-32.06
	c-2.3-2-4.38-4.25-6.57-6.37c-0.87-0.84-1.88-1.63-3.12-0.98c-1.28,0.67-1.63,1.94-1.45,3.33c0.07,0.58,0.23,1.15,0.41,1.71
	c0.91,2.67,1.87,5.31,3.16,7.83c4.36,8.52,9.97,16.1801,16.23,23.38c10.15,11.66,21.63,21.84,34.09,30.97
	c0.72,0.53,1.69,0.84,1.99,1.89c-1.06,0.42-1.86-0.27-2.69-0.5699c-19.26-6.95-37.76-15.55-55.72-25.39
	c-22.05-12.09-42.24-26.74-60.95-43.48c-0.87-0.78-1.77-1.57-2.77-2.15c-1.86-1.08-2.97-0.58-3.81,1.46
	c-0.82,1.97-0.56,3.88,0.08,5.84c2.82,8.67,7.02,16.64,12.11,24.17c10,14.8,22.21,27.6,35.52,39.4
	c21.75,19.28,45.99,34.9301,71.73,48.26c20.57,10.65,41.9,19.58,63.87,26.99c22.17,7.48,44.67,13.72,67.63,18.27
	c11.29,2.24,22.63,4.15,34.07,5.42c2.85,0.3199,4.69,1.48,5.77,4.29c1.64,4.28,4.06,8.2,6.46,12.11c1.47,2.4,2.94,4.8101,4.36,7.24
	c0.88,1.5,0.44,3.26-1.03,4.6801c-1.42,1.37-2.33,0.05-3.3-0.67c-1.03-0.77-2-1.63-2.97-2.49c-7.76-6.87-14.43-14.78-21.35-22.45
	c-0.39-0.4399-0.73-0.9301-1.12-1.36c-0.56-0.61-1.16-1.25-2.1-1.02c-1.09,0.26-1.44,1.23-1.52,2.15c-0.13,1.39-0.22,2.83-0.04,4.21
	c0.82,6.42,2.27,12.7,4.5,18.8c3.4,9.3199,8.3,17.88,13.3,26.39c0.43,0.73,1.31,1.4,0.79,2.59c-1.11-0.2-1.92-0.91-2.77-1.49
	c-18.15-12.14-36.57-23.9-54.47-36.41c-5.39-3.76-10.92-7.34-15.56-12.0699c-1.97-2.01-4-3.97-6.04-5.91
	c-1.3-1.24-2.79-2.16-4.69-2.12c-2.1,0.04-3.38,1.24-3.2,3.3101c0.12,1.38,0.47,2.8101,1.05,4.0699c4.2,9.05,7.72,18.41,12.57,27.16
	c8.92,16.1,19.73,30.88,31.8,44.71c17.31,19.85,35.88,38.48,55.76,55.76c22,19.12,44.91,37.09,69,53.52
	c21.95,14.97,44.62,28.75,68.08,41.2c4.56,2.42,9.24,4.64,13.83,7c2,1.03,2.04,1.34,0.74,3.16c-0.27,0.38-0.59,0.73-0.88,1.1
	c-13.27,17.28-25.07,35.5-34.38,55.23c-8.04,17.05-14.74,34.5601-16.68,53.55c-0.43,4.24-0.38,8.4399,0.06,12.65
	c0.16,1.54,0.92,2.64,2.51,3.03c1.46,0.36,2.51-0.28,3.32-1.42c0.67-0.96,1.32-1.9399,1.94-2.9399
	c13.34-21.5699,30.46-39.5699,51.05-54.3199c15.74-11.28,32.76-20.1899,50.72-27.38c20.8-8.33,42.21-14.42,64.4-17.64
	c11.51-1.67,23.06-2.72,34.7-3.04c11.29-0.3101,22.54,0.22,33.8,0.72c1.43,0.0601,3.03-0.13,4.06,1.17
	c-0.33,1.0601-1.03,1.55-1.58,2.14c-11.95,12.9301-21.99,27.2-29.89,42.9399c-4.7,9.38-8.52,19.08-10.15,29.53
	c-0.18,1.17-0.4,2.33-0.03,3.48c0.56,1.74,1.78,2.1801,3.2,0.98c1.25-1.05,2.37-2.28,3.45-3.52c8.72-10.02,18.95-18.23,30.29-25.04
	c23.87-14.3199,49.84-22.27,77.46-25.0699c0.72-0.0699,1.56-0.36,2.42,0.47c-0.82,0.4301-1.42,0.76-2.04,1.0601
	c-22.31,10.71-41.12,25.73-55.97,45.59c-2.96,3.96-5.6,8.12-7.58,12.67c-0.59,1.35-0.9,2.8101,0.58,3.79
	c1.45,0.96,2.35-0.17,3.27-1.12c7.89-8.16,17.52-12.89,28.74-14.3c8.53-1.08,17.1-0.89,25.66-0.49c8.23,0.39,16.43,0.28,24.62-0.67
	c10.86-1.26,21.65-2.87,32.14-6.12c17.83-5.53,34.55-13.4,50.29-23.45c8.37-5.35,16.02-11.4,22.74-18.75
	c16.77-18.34,29.05-39.15,35.69-63.1899c2.13-7.72,3.48-15.58,4.3-23.53c0.37-3.58-0.14-4.29-3.53-5.29
	c-1.01-0.3-2.04-0.5601-3.06-0.84c-7.39-2.01-14.52-4.59-21.32-7.85c0.47-1.88,2.04-5.9399,6.7-14.76
	c8.39-15.86,12.22-34.25,13.18-37.5s-2.47-3.72-3.58-2.91s-7.78,8.08-15.66,14.65s-25.36,16.16-28.26,17.53
	c-1.65,0.77-2.73,0.3199-3.38-0.21c-6.2693-7.1309-11.3204-15.2462-14.95-24.02c-4.19-10.09-6.24-20.62-6.95-31.49
	c-1.09-16.5,0.9-32.5601,6.39-48.1899c8.7-24.75,23.25-45.75,41.44-64.34c8.04-8.22,16.55-15.97,25.74-22.97
	c17.71-13.5,36.54-25.17,56.56-34.92c21.61-10.52,44.07-18.75,67.34-24.78c16.28-4.22,32.76-7.24,49.42-9.14
	c0.71,0.23,1.37,0.87,1.36,2.55c-0.02,3.6899-0.6801,33.64-5.8101,50.1899s-7.12,24.16-0.66,24.49
	c6.45,0.33,46.34-46.34,55.27-59.41c5.79-8.47,8.8199-15.11,11.42-19.03c48.71,2.2,71.05-10.46,79.74-17.66
	c17.12-14.1801,22.1-26.9301,29.79-40.72c8.02-14.37,14.03-27.16,15.72-38.73L1238.5148,972.29z M445.4148,646.41
	c0.29-0.46,0.81-0.48,1.23-0.27c6.14,2.94,12.84,3.53,19.42,4.52c7.65,1.15,15.37,1.13,23.61,0.7c-3.4-8.26-5.85-16.06-7.54-24.09
	c-2.62-12.45-4.1-24.98-2.52-37.7c0.42-3.34,0.92-6.68,2.78-10.03c2.38,14.55,6.3,28.26,11.73,41.51
	c5.38,13.15,12,25.66,19.96,37.46c2.07,3.07,1.57,4.12-1.96,4.8c-15.51,3-30.54,0.89-45.31-4.17c-6.45-2.21-12.59-5.06-18.23-8.94
	c-1.06-0.73-2.17-1.41-2.93-2.49c-0.28-0.39-0.53-0.82-0.24-1.29L445.4148,646.41z M519.5547,1327.34
	c-0.3,0.02,10.98,4.22,39.93,4.21c0,0-74.6,21.3-170.64-9.28c-93.89-29.89-145.27-112-145.27-112
	c80.24,80.0699,161.88,95.79,161.88,95.79c-67.18-25.3199-107.91-90.78-107.91-90.78c53.98,49.16,101.02,61.1899,101.02,61.1899
	c-44.81-25.04-79.7-79.41-79.7-79.41c106.4,109.48,270.99,111.46,270.99,111.46s-39.32,16.27-70.31,18.83h0.01L519.5547,1327.34z
	 M501.8047,800.85c0.59-1.93,1.95-2.83,3.17-3.69c5.59-3.9,11.57-7.15,17.85-9.77c17.19-7.18,34.98-12.07,53.64-13.43
	c0.46-0.03,0.93-0.12,1.38-0.2c0.07-0.01,0.12-0.13,0.2-0.21c-0.3-1.24-1.43-1-2.26-1.19c-14.09-3.22-28.33-5.3-42.79-5.82
	c-7.38-0.26-14.76-0.56-22.15-0.53c-0.68,0-1.49,0.32-1.88-0.48c-0.51-1.07,0.21-1.81,0.97-2.37c1.81-1.35,3.91-2.1,6.06-2.71
	c4.29-1.22,8.7-1.84,13.08-2.64c13.43-2.46,26.95-3.5,40.6-2.52c3.75,0.27,7.44,0.96,11.16,1.43c0.66,0.09,1.34,0.47,2.06-0.15
	c-0.31-1.35-1.56-1.95-2.48-2.75c-10.1-8.85-21.3-16.09-33.02-22.57c-1.74-0.96-3.46-1.98-5.18-2.98c-0.53-0.31-0.95-0.75-0.73-1.41
	c0.23-0.71,0.91-0.7,1.47-0.62c3.25,0.44,6.52,0.79,9.74,1.42c12.1,2.39,23.22,7.24,33.56,13.91c18.3,11.79,32.76,27.2,43.3,46.25
	c1.35,2.43,2.66,4.89,3.67,7.91c-44.38-11.07-87.91-7.94-131.43,5.11h0.01V800.85z M655.1848,786.49
	c-10.08-14.53-22.28-27.15-34.91-39.44c-17.75-17.26-37.07-32.76-55.19-49.59c-15.4-14.31-30.11-29.3-40.64-47.77
	c-5.7-10-10.29-20.53-14.52-31.21c-5.02-12.67-8.36-25.84-11.42-39.08c-1.09-4.7-0.94-9.54-1.67-14.96c1.43,1.33,2.33,2.1,2.78,3.5
	c2.38,7.44,6.23,14.19,10.59,20.56c4.49,6.57,9.16,13.04,14.58,18.93c6.12,6.64,12.19,13.32,18.66,19.62
	c2.11,2.05,3.7,4.54,5.57,6.79c0.38,0.46,0.88,1.03,1.44,0.72c0.86-0.48,0.32-1.2-0.02-1.78c-1.5-2.52-3.11-4.97-4.52-7.53
	c-8.81-15.95-14.14-33.14-17.88-50.87c-1.77-8.36-3.11-16.79-3.95-25.38c0.81,0.41,0.96,1.11,1.2,1.74
	c5.1,13.64,11.57,26.65,18.63,39.36c14.09,25.37,29.97,49.54,48.64,71.82c10.92,13.03,21.84,26.05,32.27,39.49
	c20.59,26.53,33.27,56.36,38.57,89.43c0.56,3.47,1.07,6.95,1.6,10.42c-3.4-4.97-6.48-9.94-9.81-14.75L655.1848,786.49z
	 M862.4847,1323.29c0,0,0.29,2.0601-0.88,5s-8.03,17.5601-9.71,20.4301s-3.26,0.8101-3.26,0.8101l-5.91-3.9399
	c-1.25-0.87-0.98-1.5601-0.12-2.62c7.83-6.72,19.86-19.6899,19.86-19.6899h0.02V1323.29z M847.7947,1328.54
	c3.31,3.6-6.84,11.25-8.22,12.37c-1.38,1.11-1.45,0.7-2.59,0.1c-1.15-0.61-3.27-3.38-3.27-3.38c4.58-1.76,10.88-6.12,14.09-9.09
	H847.7947z M866.5948,782.41c0.23-1.38,1.16-1.85,2.58-1.05c1.42,0.81,8.37,12.76,29.25,21.04c17.99,7.14,26.68,12.15,28.75,13.4
	c0.13,0.08,0.27,0.14,0.42,0.19c12.01,3.79,20.73,15.01,20.73,28.28c0,8.18-3.32,15.56-8.68,20.93c-0.82,0.82-0.82,2.16,0.01,2.97
	c3.83,3.73,9.11,9.52,10.11,13.89c0.75,2.48-2.37,4.84-5.17,3.98s-7.64-7.86-15.18-9.69c-7.53-1.83-18.62-2.26-23.36-5.17
	c-0.17-0.1-0.32-0.22-0.49-0.34c-9.8-4.84-16.56-14.9-16.56-26.57c0-0.52,0.02-1.04,0.05-1.56c0.04-0.68-0.24-1.33-0.76-1.78
	c-5.49-4.75-11.6-14.87-10.44-16.9c0.72-1.26,2.13-0.88,4.45,1.43c0.05,0.05,0.1,0.1,0.15,0.14c2.98,2.5,5.6,4.19,7.38,5.2
	c1.02,0.58,2.31,0.2,2.88-0.83c0-0.01,0.01-0.02,0.02-0.04c0.53-0.96,0.22-2.15-0.69-2.76c-12.31-8.26-24.53-21.75-22.9-23.71
	c1.41-1.7,2.58-0.86,8.65,4.58c5.49,4.92,17.27,10.49,21.46,12.4c0.7,0.32,1.5,0.21,2.12-0.24c0.22-0.16,0.44-0.31,0.66-0.46
	c1.28-0.87,1.23-2.78-0.12-3.55c-2.81-1.61-6.93-3.97-12.97-7.45c-18.51-10.66-22.69-24.32-22.36-26.35v0.02H866.5948z
	 M1064.0048,1088.8101c0,0,1.25-10.8101,1.75-15.61s0.6801-5.4,4.0699-5.35c3.38,0.05,4.71,0.05,4.54,2.37
	c-0.16,2.3199-4.3,15.5601-6.62,19.36c-2.3199,3.8101-6.8101,8.71-3.73-0.78h-0.01V1088.8101z M1094.2147,1075.52
	c-2.98,6.78-22.1801,35.91-25.66,37.41c-3.49,1.5-2.47-1.83-0.8199-6.13c1.66-4.3,9.27-28.79,10.76-33.4301
	c1.49-4.63,1.99-5.96,3.3101-6.62s11.96-0.84,11.96-0.84C1097.6147,1066.0601,1097.1948,1068.74,1094.2147,1075.52
	 M1187.7347,1043.64c-9.16,5.78-19.35,9.61-30.23,12.0601c-10.25,2.3101-23.39,2.0601-33.87,1.34
	c-12.5699-0.87-52.95-3.27-80.4401-1.99c-28.47,1.3199-64.55,8.28-91.17,17.14c-25.34,8.4399-49.61,19.23-72.16,33.6899
	c-10.28,6.59-20.06,13.86-28.9,22.3199c-9.94,9.51-17.92,20.58-25.38,32.05c-17.81,27.39-29.34,57.27-35.17,89.39
	c-0.5,2.77-0.93,5.55-1.3,8.34c-0.37,2.78-0.75,8.38-0.94,8.4399c-0.37-0.17-0.6-0.7-0.71-1.0699
	c-4.88-17.1899-8.49-34.62-9.26-52.51c-0.48-11.17,1.16-22.22,3.17-33.1899c3.92-21.38,10.75-41.86,19.42-61.75
	c0.28-0.65,0.83-1.26,0.58-2.0699c-3.42,3.1801-6.58,6.61-9.6,10.15c-2.48,2.89-4.74,5.97-7.17,8.9
	c-0.97,1.17-2.12,2.1801-3.22,3.23c-0.45,0.4301-1.04,0.6-1.61,0.22c-0.56-0.38-0.98-0.9-0.71-1.63c0.32-0.88,0.67-1.75,1.06-2.59
	c8.72-18.78,20.72-35.5,32.91-52.0699c9.41-12.8,19.65-24.95,29.92-37.0699c1.2-1.42,2.36-2.87,3.51-4.26
	c-0.36-0.47-0.66-0.38-0.92-0.3c-6.94,2.1-14.12,2.78-21.26,3.6899c-1.22,0.16-2.42,0.4399-3.64,0.6c-0.93,0.12-1.85-0.02-2.13-1.08
	c-0.29-1.09,0.46-1.55,1.35-1.92c15.56-6.6,29.47-15.88,42.65-26.33c10.31-8.18,19.61-17.45,28.8-26.83
	c0.07-0.07,0.09-0.2,0.19-0.45c-2.6,0.26-5.12,0.51-7.64,0.77c-7.07,0.73-14.17,0.56-21.25,0.7c-1.03,0.02-2.66,0.37-2.8-1.06
	c-0.15-1.63,1.53-1.57,2.71-1.78c5.66-1.01,11.17-2.62,16.71-4.11c6.39-1.71,12.8-3.37,19.26-5.76c-1.47-0.68-2.78-1.21-4.01-1.89
	c-1.49-0.82-2.93-1.75-3.81-3.29c-0.2-0.35-0.46-0.79-0.22-1.16c0.27-0.41,0.76-0.17,1.14-0.08c1.7,0.42,3.38,1.01,5.1,1.29
	c6.94,1.14,13.68,0.2,20.16-2.38c3.14-1.25,5.47-3.79,8.14-5.79c5.72-4.28,11.5-8.49,17.37-12.58c0.46-0.32,1.26-0.52,1.15-1.19
	c-0.13-0.78-0.96-0.47-1.49-0.53c-4.14-0.5-8.28-0.99-12.3,0.72c-0.89,0.38-1.75,0.08-2.33-0.73c-0.59-0.82-0.44-1.66,0.07-2.47
	c1-1.58,2.68-2.34,4.41-3.52c-2.23-0.59-4.2-1.1-6.16-1.64c-11.2-3.11-22.09-7.06-32.73-11.73c-0.43-0.19-0.85-0.4-1.26-0.62
	c-0.59-0.33-0.83-0.86-0.59-1.48c0.27-0.68,0.8-0.97,1.56-0.72c2,0.66,4,1.36,6.02,1.94c13.76,3.94,27.77,6.45,42.11,6.23
	c12.57-0.19,24.83-2.41,36.52-7.23c0.52-0.22,1.14-0.29,1.6-0.93c-5.37-1.65-10.55-3.63-15.66-5.82
	c-7.86-3.38-15.44-7.27-22.76-11.71c-2.79-1.7-5.58-3.4-8.31-5.2c-0.64-0.42-1.49-0.87-0.99-1.75c0.56-1.01,1.41-0.44,2.14-0.04
	c14.26,7.7,29.53,12.26,45.5,14.67c1.73,0.26,3.47,0.51,5.32,0.77c0.02-0.88-0.56-1.34-0.9-1.89c-1.51-2.46-2.8-5.01-3.81-7.71
	c-0.26-0.7-0.35-1.48-0.4-2.24c-0.08-1.06,0.21-2.04,1.29-2.46c1.18-0.46,1.99,0.19,2.69,1.09c4.08,5.27,9.39,8.78,15.74,10.69
	c2.57,0.77,5.25,0.67,7.75-0.4c13.76-5.88,27.8-10.98,42.22-14.97c0.4301-0.12,1.0601-0.12,1.14-0.66
	c0.0699-0.52-0.49-0.75-0.89-0.97c-2.67-1.45-5.23-3.15-8.25-3.85c-0.99-0.23-2.03-0.58-1.9399-1.88c0.09-1.41,1.2-1.78,2.36-1.9
	c2.96-0.31,5.84,0.2,8.72,0.81c0.61,0.13,1.23,0.25,1.86,0.37c0.14-0.83-0.45-1.04-0.8101-1.37c-5.49-5.12-9.91-10.93-11.8199-18.37
	c-0.35-1.37-0.77-2.72-0.53-4.15c0.1899-1.11,0.7-2.04,1.92-2.24c1.23-0.2,1.9301,0.52,2.47,1.55c5.05,9.48,13.52,14.09,23.53,16.5
	c0.1,0.02,0.22-0.05,0.34-0.08c0.12-0.68-0.42-1.06-0.71-1.54c-3.15-5.13-5.79-10.46-6.58-16.53c-0.11-0.88-0.23-1.76,0.15-2.6
	c0.34-0.76,0.89-1.24,1.78-1.17c0.8,0.06,1.3,0.53,1.49,1.28c2.23,8.57,8.2,14.57,14.15,20.59c1.08,1.09,2.3199,1.73,3.78,1.95
	c-0.1,1.03-0.13,2.08-0.12,3.13c0,0.25,0,0.5,0.01,0.76c0.04,1.06,0.11,2.13,0.26,3.22c0.03,0.22,0.01,0.51,0.0601,0.77
	c0.05,0.27,0.16,0.51,0.47,0.59c0.67,0.17,0.76-0.6,1.0699-0.98c0.65-0.79,1.34-1.54,2.05-2.27c0.3101-0.32,0.64-0.63,0.96-0.94
	c0.38-0.37,0.76-0.74,1.16-1.09c0.45-0.4,0.9-0.8,1.37-1.19c0.24-0.21,0.49-0.41,0.74-0.61c0.58-0.47,1.15-0.93,1.75-1.38
	c0.62,0,1.25-0.03,1.87-0.05c-0.04,0.08-0.0601,0.16-0.1,0.24c-0.03,0.06-0.0601,0.12-0.08,0.18c-0.36,1.14-0.7,2.28-1.03,3.43
	c-0.8101,2.83-1.48,5.69-1.79,8.61c-0.14,1.34-0.22,2.69-0.1899,4.07c0,0.26-0.02,0.55,0.03,0.79c0.03,0.12,0.0699,0.24,0.15,0.33
	c0.08,0.1,0.1899,0.17,0.35,0.23c0.64,0.21,0.88-0.39,1.1899-0.81c1.11-1.51,2.17-3.06,3.38-4.48c0.87-1.02,1.74-2.03,2.63-3.03
	c2.53-2.85,5.1801-5.57,8.21-7.93c0.11-0.09,0.28-0.26,0.3101-0.24c0.23,0.17,0.08,0.34-0.04,0.51c-0.17,0.32-0.3199,0.64-0.49,0.96
	c-1.4301,2.79-2.77,5.63-3.98,8.52c-0.88,2.11-1.71,4.25-2.41,6.45c-0.54,1.71-1.05,3.42-1.33,5.17s-0.34,3.52,0,5.35
	c0.05,0.28,0.08,0.59,0.23,0.79c0.02,0.02,0.02,0.05,0.04,0.07c0.0699,0.07,0.16,0.11,0.28,0.14c0.37,0.07,0.5601-0.11,0.6899-0.35
	c0.0699-0.13,0.14-0.28,0.2-0.43c0-0.02,0.02-0.04,0.03-0.06c0.3199-0.75,0.66-1.49,1.0601-2.2c4.55-8.04,10.37-14.75,16.83-21.24
	c0.03-0.03,0.0601-0.07,0.1-0.1h0.01c0.17-0.19,0.35-0.39,0.61-0.53c0.1899-0.11,0.4301-0.18,0.78-0.15
	c-0.98,2.25-1.5,4.44-2.49,6.59c-2.34,5.09-4.89,10.09-7.0601,15.26c-1.04,2.49-2.03,5.01-2.8101,7.62
	c-0.09,0.29-0.17,0.58-0.25,0.87c-0.48,1.64-0.91,3.29-1.24,4.94c-0.65,3.25-0.9,6.53-0.3101,9.91c0.0601,0.36,0.05,0.84,0.15,1.23
	c0,0.02,0.02,0.03,0.03,0.05c0.05,0.17,0.12,0.33,0.24,0.45c0.08,0.08,0.23,0.1,0.36,0.14c0.08,0.02,0.12,0.08,0.22,0.08
	c0.8199,0.03,0.6899-0.85,0.89-1.48c0.04-0.12,0.0699-0.25,0.14-0.34c0.04-0.05,0.05-0.11,0.0699-0.18
	c0.03-0.11,0.05-0.22,0.09-0.32c4.08-10.23,10.09-18.89,17.64-26.79l0.04-0.04c0.1801-0.2,0.37-0.42,0.66-0.32
	c0.05,0.02,0.1,0.02,0.15,0.06c0.01,0.04,0.03,0.08,0.05,0.13c0.03,0.07,0.0601,0.14,0.03,0.18c-0.5,0.86-1.01,1.71-1.53,2.55
	c-1.9714,3.1595-3.6901,6.4698-5.14,9.9c-3.72,8.81-5.29,18.12-4.01,28.32c0.5601,4.42,1.29,8.75,2.64,12.78
	c0.45,1.34,0.98,2.64,1.59,3.9c0.5699,1.17,1.1801,2.32,1.92,3.4c0.5601,0.83,1.17,1.63,1.84,2.4c0.38,0.43,0.75,0.86,1.12,1.3
	c6.0699,7.04,11.8101,13.91,19.0601,19.75c1.52,1.39,2.99,2.69,4.4399,3.95c0.37,0.32,0.74,0.64,1.11,0.95
	c1.3,1.11,2.58,2.17,3.83,3.18c0.13,0.11,0.27,0.22,0.41,0.33c1.39,1.11,2.74,2.15,4.0699,3.14c0.28,0.21,0.5601,0.41,0.84,0.62
	c1.1899,0.88,2.36,1.71,3.5,2.5l0.4,0.28c1.3,0.89,2.5601,1.71,3.8,2.48c0.14,0.09,0.28,0.17,0.4301,0.26
	c1.17,0.73,2.3101,1.41,3.42,2.04l0.21,0.12c2.2527,1.2735,4.5618,2.4447,6.92,3.51c0,0,0.02,0,0.02,0.01
	c-0.11,0.02-0.1899,0.04-0.1899,0.04s31.3101,12.3101,12.17,27.85L1187.7347,1043.64z"/>
<path class="st4" d="M484.0847,1180.08c-0.44-0.0601-0.89-0.1801-1.33-0.1801c-10.01-0.0699-19.92-1.24-29.87-2.21
	c-10.06-0.98-20.17-1.3-30.27-1.79c-14.67-0.71-29.25-2.37-43.8-4.48c-19.35-2.8101-38.34-7.14-57.12-12.5
	c-5.42-1.55-10.66-3.6899-16.29-4.5c-10.35-1.49-20.69-3.01-31.02-4.63c-8.7-1.37-17.37-3-26.08-4.33
	c-10.45-1.6-20.95-2.85-31.35-4.83c-17.35-3.3-34.36-7.9-51.16-13.3c-20.42-6.5699-40.13-14.87-58.95-25.14
	c-18.26-9.96-35.06-21.95-49.16-37.41c-2.06-2.26-3.96-4.65-5.93-6.99c-0.2277-0.2673-0.4349-0.5515-0.62-0.85
	c-0.75-1.1801-1.06-2.41,0-3.5601c0.93-1.01,2.1-0.95,3.25-0.42c0.85,0.39,1.68,0.85,2.49,1.33
	c17.64,10.4301,36.02,19.35,55.01,27.05c19.99,8.11,40.6,14.1899,61.65,18.8199c12.4,2.72,24.93,4.78,37.5,6.52
	c8.38,1.15,16.79,2.05,25.19,3.02c1.37,0.16,3.8,0.54,4.22-0.28c0.27-1.59-4.94-1.83-7.42-2.4c-5.74-1.3199-11.24-2.89-16.89-4.5
	c-11.08-3.17-22.1-6.46-32.95-10.36c-17.19-6.1801-33.85-13.42-49.24-23.38c-4.64-3-9.28-6-13.71-9.3101
	c-1.2-0.89-3.79-2.28-3.24-3.34c0.91-1.0601,2.34,0.26,3.29,0.71c16.93,8.03,34.48,14.4,52.54,19.39
	c15.09,4.16,30.41,7.1,45.94,9.16c17.54,2.33,35.17,2.89,52.78,2.55c25.12-0.48,49.82-4.53,74.14-10.83
	c22.03-5.71,43.36-13.3199,63.89-23.16c23.52-11.27,45.61-24.83,66.15-40.91c2.49-1.95,4.94-3.94,7.23-6.37
	c-1.13,0.37-2.28,0.68-3.39,1.13c-28.59,11.49-58.32,18.9-88.5,24.7499c-19.97,3.87-40.03,7.16-60.27,9.2
	c-10.63,1.0699-21.28,1.9-31.98,2.3199c-14.36,0.5601-28.69,0.0601-42.99-0.79c-27.59-1.64-54.61-6.4399-80.51-16.4399
	c-14.45-5.58-28.05-12.73-39.79-23c-6.39-5.59-11.7-11.85-16.41-19.23c-1.29-2.04-3.14-4.62-2.26-5.26
	c0.83-0.67,2.24,0.27,3.75,1.11c20.45,9.79,42.09,15.37,64.46,18.52c9.21,1.29,18.46,2.08,27.71,2.53
	c9.13,0.45,18.31,0.21,27.47-0.22c14.47-0.69,28.81-2.29,43.03-4.99c19.47-3.7,38.3-9.57,56.61-17.12
	c20.07-8.27,39.17-18.33,56.76-31.12c11.55-8.4,21.92-18.09,31.36-28.8c1.09-1.23,2.23-2.42,3.33-3.64c0.4-0.44,0.79-0.96,0.56-1.57
	c-0.3-0.79-1.06-0.88-1.78-0.79c-4.2,0.55-30.11,3.37-38.68,5.44c-10.08,2.43-19.74,6.12-29.36,9.96
	c-11,4.39-37.16,20.59-40.28,22.48c-8.38,5.09-16.09,11.03-22.79,18.2c-2.89,3.09-5.25,6.61-7.44,10.24c-0.6,1-1.09,2.1-2.13,2.77
	c-0.61,0.4-1.31,0.66-1.97,0.19c-2.23-1.23,0.76-8.31,1.98-11.54c5.44-14.49,13.58-27.28,23.6-39.01
	c16.82-19.68,37.16-34.8,59.98-46.75c30.23-15.82,52.49-23.65,86.15-28.43c13.04-1.85,36.16-4.34,49.34-4.71
	c10.48-0.3,20.94-0.12,31.36,0.59c32.88,2.23,64.99,8.45,96.06,19.63c0.55,0.2,1.1,0.37,2.11,0.7c-0.48-1.16-1.27-1.37-1.86-1.73
	c-5.64-3.4-11.21-6.9-16.95-10.13c-11.08-6.24-22.8-11.14-34.41-16.27c-17.29-7.63-35.35-12.76-53.68-17.08
	c-6.51-1.53-12.84-3.86-19.55-4.54c-1.99-0.2-3.97-0.36-5.96-0.55c-0.73-0.07-1.48-0.23-1.62-1.06s0.53-1.27,1.19-1.57
	s1.34-0.58,2.04-0.75c9.2-2.25,18.41-4.43,28-4.55c3.82-0.05,7.62-0.48,11.42-0.95c7.46-0.92,14.94-0.42,22.38-0.41
	c8.55,0,17.11,1,25.62,2.09c6.87,0.88,13.75,1.7,20.65,2.42c15.55,1.62,31.07,3.44,46.28,7.17c4.1,1.01,8.1,2.43,12.11,3.78
	c3.68,1.24,3.72,1.32,4.41-2.62c1.74-9.97,2.92-19.95,2.14-30.15c-0.51-6.67-0.54-13.35-1.86-19.97
	c-1.95-9.76-5.75-18.88-9.44-28.03c-5.76-14.26-13.95-27.12-22.87-39.6c-9.92-13.88-20.97-26.85-31.42-40.3
	c-10.16-13.08-18.47-21.58-28.21-34.97c-6.8-9.34-12.54-17.64-19.45-28.39c-11.02-17.14-19.9-35.6-26.2-54.98
	c-9.53-29.27-12.92-52.86-12.84-55.1c0.03-1.06,0.08-2.13,0.65-3.07c1.03-1.73,2.87-1.84,3.97-0.2
	c6.57,9.73,13.27,19.37,19.62,29.24c6.95,10.79,14.52,21.11,22.57,31.08c4.22,5.23,8.6,10.34,13.46,15.01
	c1.57,1.51,3.1,3.07,4.55,4.69c6.64,7.37,14.03,13.93,21.4,20.55c11.72,10.52,23.57,20.91,35.93,30.66
	c10.6,8.37,21.23,16.74,32.32,24.48c5.88,4.1,11.51,8.55,17.26,12.83c0.41,0.31,0.81,0.62,1.22,0.94c1.84,1.43,4.53,0.33,4.85-1.97
	v-0.07c3.4-24.77,10.65-48.38,21.18-71.02c7.86-16.45,16.82-21.36,18.97-22.99c0.82-0.62,2.59-0.86,3.5,0.03s0.31,1.9-0.05,2.85
	c-0.93,2.5-4.47,11.33-7.32,33.65c-1.58,12.41-1.77,24.99-0.16,37.39c0.45,3.48,5.15,24.13,5.95,27.33
	c1.28,5.13,8.52,27.31,13.48,41.14c2.42,6.75,4.53,13.6,6.84,20.39c3.9,11.47,8.58,22.63,13.33,33.77
	c8.26,19.39,17.35,38.34,28.77,56.1c10.39,16.17,22.17,31.26,35.89,44.75c9.24,9.08,19.12,17.42,30.14,24.3
	c11.46,7.16,22.64,14.77,34.41,21.42c12.64,7.15,25.94,12.73,40.02,16.38c0.68,0.18,1.35,0.41,2,0.67c0.17,0.07,0.45,0.27,0.47,0.69
	c-0.36,0.95-3.29,0.28-4.84,0.09c-16.8-2.15-33.61-4.53-49.57-10.42c-18.52-6.83-36.97-13.99-54.2-23.75
	c-11.24-6.37-22.33-13.02-33.08-20.22c-14.1-9.44-27.25-20.05-39.94-31.28l-5.96-5.28c0.24,1.66,1.21,2.31,1.78,3.14
	c0.6,0.87,1.24,1.72,1.93,2.51c9.17,10.41,18.11,21.01,27.79,30.96c6.98,7.18,15.06,13.12,22.38,19.92
	c9.73,9.03,21.27,15.26,32.59,21.89c10.22,5.98,20.66,11.57,31.33,16.71c8.01,3.85,16.01,7.75,24.38,10.8
	c1.14,0.42,3.7,0.65,3.62,2.04c-0.09,1.41-7.54,0.11-11.1-0.24c-14.44-1.39-28.49-4.71-42.44-8.55
	c-10.24-2.82-19.99-6.93-29.73-11.05c-18.51-7.83-36.39-17.05-54.61-25.52c-17.91-8.33-34.96-18.36-50.35-30.95
	c-0.5-0.41-1.15-1.21-1.99-0.95c-1.67,0.43,5.25,7.6,8.2,11.03c9.83,11.43,21.47,20.62,34.58,28.08
	c11.44,6.5,23.58,11.19,36.18,14.64c6.99,1.92,14.12,3.58,21.42,4.12c0.23,0.02,0.47,0.02,0.7,0.07c0.99,0.2,2.34,0.04,2.41,1.48
	c0.06,1.13-1.08,1.43-1.93,1.78c-4.53,1.84-9.38,2.11-14.14,2.8c-5.03,0.73-10.09,0.49-15.14,0.34c-9.04-0.26-18.09-0.48-27.03-2.16
	c-0.2-0.04-0.44,0.1-1.46,0.38c2.44,0.88,4.25,1.59,6.1,2.18c10.99,3.48,22.17,6.34,33.48,8.46c9.34,1.75,18.84,2.63,28.28,3.82
	c1.62,0.2,3.28,0.01,4.93,0.04c0.63,0.01,1.17,0.33,1.3,0.98s-0.27,1.17-0.86,1.36c-1,0.32-2.03,0.61-3.07,0.74
	c-7.45,0.98-14.87,2.24-22.37,2.85c-3.27,0.27-6.59-0.15-9.84,0.94c33.59,8.41,67.57,11.96,102.42,7.53
	c1.75,0.65-1.7,2.45-2.69,2.95c-16.22,8.23-33.43,12.8-51.57,14.42c-3.86,0.35-24.52,1.2-30.99,0.63
	c-12.06-1.06-24.11-2.11-36.05-4.2c-22.5-3.93-44.45-10.02-66.18-16.98c-21.36-6.85-41.57-16.32-61.32-26.77
	c-13.83-7.31-27.89-14.12-41.97-20.91c-1.05-0.5-2.15-0.88-3.86-1.57c0.8,1.36,1.68,1.61,2.4,1.98
	c19.22,10.02,37.21,22.01,55.06,34.24c11.28,7.73,21.86,16.27,32.11,25.28c2.77,2.43,4.81,5.46,6.98,8.38
	c0.53,0.71,1.41,1.51,0.6,2.48c-0.65,0.77-1.54,0.22-2.3-0.01c-5.28-1.63-10.53-3.36-15.83-4.9c-10.61-3.09-21.39-5.5-32.3-7.29
	c-5.56-0.92-11.17-1.52-16.74-2.38c-4.35-0.67-8.68,0.06-13.03-0.04c-10.36-0.26-20.65,0.75-30.93,1.92
	c-0.55,0.06-1.18-0.05-1.59,0.54c0.19,0.99,1.12,1.07,1.81,1.42c11.88,6.03,24.41,10.44,36.93,14.89c13.43,4.77,27.24,8.13,41.18,11
	c6.2,1.28,12.5,1.8,18.76,2.48c4.54,0.49,9.1,0.75,13.66,0.94c4.39,0.18,8.76,0.82,13.15,1.05c11.16,0.58,22.32,0.25,33.46-0.52
	c1.08-0.07,2.57-0.9,3.08,0.64c0.24,0.74-0.09,1.33-0.59,1.83c-2.29,2.28-5.08,4.01-8.02,5.33c-18.22,8.23-37.27,13.09-57.01,15.08
	c-5.46,0.55-10.94,0.96-16.4,1.55c32.53,4.58,65.07,4.91,97.62,0.25c32.4-4.64,63.21-14.8,93.73-27.67
	c-0.41,2.17-1.52,3.05-2.51,3.95c-12.13,11-25.14,20.83-38.79,29.8799c-7.38,4.9-15.36,8.67-23.19,12.6801
	c-11.19,5.74-22.28,11.74-34.23,15.9301c-8.84,3.1-17.53,6.6-26.17,10.22c-20.19,8.46-40.64,16.24-61.45,23.02
	c-30.01,9.78-60.59,17.1899-91.88,21.53c-6.87,0.95-13.76,1.64-20.66,2.25c-1.14,0.1-2.27,0.35-3.9,0.62
	c1.81,1.2,3.42,1.5,4.98,1.89c17.79,4.48,35.88,6.23,54.17,5.71c28.48-0.8101,56.69-4.12,84.56-10.12
	c10.01-2.16,19.79-5.11,29.35-8.8199c1.14-0.4399,2.51-1.78,4.13-0.78c3.05,2.4301-10.11,16.9301-16.19,24.63
	c-6.12,7.74-21.38,18.85-19.62,22.27c0.67,0.65,1.8-0.1,2.46-0.4399c16.44-8.49,32.07-18.28,46.54-29.83
	c8.91-7.12,17.2-14.95,25.2-23.1c2.36-2.4,4.1-4.04,6.89-6.77c0.82-0.6,1.69-0.6,2.25-0.1801c0.42,0.3101,0.42,0.84,0.36,1.3
	c-0.21,1.5601-1.07,2.84-1.8,4.1801c-7.53,13.6899-17.37,25.6801-27.72,37.26c-11.22,12.55-23.47,24.08-36.08,35.2
	c-17.46,15.39-36.86,27.98-57.44,38.78c-12.81,6.73-25.96,12.72-39.42,18.05c-0.68,0.27-2.53,0.36-2.03,1.67
	c1.13,2.48,31.83-9.84,47.32-15.62c15.44-5.76,30.47-12.4301,45.21-19.77c14.83-7.38,28.77-16.28,42.48-25.39
	c1.13,1.15,0.42,1.84,0.09,2.52c-7.03,14.36-16.02,27.3199-27.16,38.85c-4.9,5.0699-10.01,9.9301-14.91,15
	c-3.58,3.7-7.83,6.74-11.71,10.16c-1.1,0.97-3.05,1.79-2.7,3.36c0.31,1.37,2.36,1.1899,3.66,1.5601
	c9.34,2.64,18.16,6.33,26.28,11.75c7.33,4.9,14.84,9.53,21.73,15.0601c1.75,1.4,3.31,2.99,4.8,4.66c0.53,0.59,1.61,1.12,0.81,2.34
	c-0.92,1.0699-3.56-0.61-5.34-0.97c-8.81-1.74-17.73-2.17-26.73-2.36c-18.83-0.4-37.62,1.35-56.13,4.8199
	c-15.77,2.95-31.73,4.86-47.7,6.48c-0.19,0.02-0.36,0.1899-1.09,0.62c3.57,0.49,6.63,1.08,9.71,1.3
	c9.23,0.65,18.5,0.9399,27.74,0.8199c7.93-0.1,15.84-0.6801,23.73-1.46c14.88-1.46,29.71-1.72,44.6-0.17
	c8.54,0.88,17.08,1.71,25.43,3.7c8.48,2.02,16.68,4.9,24.51,8.77c0.63,0.3101,1.23,0.6801,1.82,1.0699
	c0.17,0.11,0.78,0.47,0.64,1.01c-1.01,1.5601-15.48,2.78-22.95,4.97c-7.56,2.23-15.07,4.64-22.29,7.78
	c-6.43,2.8-12.75,5.83-19.05,9.05c-0.7,0.36-0.53,1.42,0.25,1.54c2,0.3101,3.96,0.55,5.92,0.72c10.1,0.85,46.35,7.6,54.29,10.27
	c5.8,1.95,11.6,3.87,17.17,6.4c0.71,0.3199,1.62,0.42,1.98,1.37c-0.51,0.96-1.43,0.5699-2.17,0.55
	c-22.35-0.5601-43.97,3.66-65.17,10.22c-17.3,5.35-32.05,10.13-48.65,17.39c-1.03,0.45-3.62,1.8199-5.09,2.91
	c-0.48,0.35-0.59,1.02-0.23,1.49c0.79,1.04,1.88,1.98,2.71,2.5c15.83,9.95,32.95,15.2,51.3,18.52c8.22,1.49,16.53,2.42,24.85,2.75
	c17.81,0.7,35.45-0.85,52.82-5.01c2.62-0.63,5.27-1.12,8.08-1.26c0.4-0.02,0.74,0.34,0.67,0.73c-0.2,1.0699-1.15,1.55-1.79,2.14
	c-7.87,7.26-16.07,14.11-25.27,19.6801c-1.17,0.7-3.09,1.14-3.06,2.61c0.03,1.78,1.96,2.3,3.36,2.9301c1.7,0.76,3.42,1.49,5.2,2.03
	c10.49,3.16,21.27,4.72,32.09,5.8199c6.34,0.64,12.67-0.02,18.94-1.1899c1.02-0.1899,2.03-0.65,3.08-0.14
	c0.56,1.11-0.32,1.77-0.8,2.5c-5.92,9-13.4,16.63-21.07,24.1c-10.29,10.01-22.8,16.46-35.69,22.3101
	c-9.48,4.3-19.45,7.15-29.62,8.99c-9.47,1.71-18.94,3.52-28.53,4.62c-9.57,1.1-19.11,2.33-28.44,4.96
	c-5.59,1.58-10.92,3.6-15.99,6.39c-2.02,1.11-5.32,3.8-6.45,3.0699c-0.76-0.9301,0.87-2.05,1.56-2.6899
	c6.94-6.37,15.07-10.75,23.78-14.1899c6.58-2.6,13.46-4.1899,20.15-6.42c16.52-5.51,31.77-13.51,46.17-23.2
	c2.31-1.55,4.58-3.15,7.11-4.89c-1.87-1.3101-3.63-1.17-5.34-1.45c-3.67-0.6-7.35-1.13-11.06-1.3101
	c-9.07-0.45-17.97-2.37-27.07-2.52c-16.32-0.27-32.35,1.6899-48.13,5.8199c-20.2,5.29-38.96,13.77-56.43,25.17
	c-1.03,0.67-2,2.16-3.32,1.6899c-0.86-0.55,0.15-1.6801,0.55-2.3199c4.71-7.51,10.45-14.2,16.76-20.37
	c12.07-11.8101,25.68-21.65,39.85-30.75c0.79-0.51,1.59-1.01,2.36-1.55c0.17-0.12,0.24-0.37,0.5-0.8101
	c-2.14-1.0699-4.5-1.1801-6.73-1.62c-23.17-4.58-46.63-6.17-70.16-5.59c-41.86,1.03-81.65,10.8199-119.01,29.97
	c-10.84,5.5601-21.22,11.89-31.01,19.15c-1.71,1.27-4.37,3.5-5.95,4.92c-6.33,5.73-12.37,11.78-19.03,17.13
	c-3.04,2.4399-5.52,5.4399-8.17,8.27c-0.83,0.89-1.52,2.03-2.82,2.33c-0.43-0.64-0.19-1.0699,0-1.49
	c8.73-19.22,18.89-37.65,31.93-54.29c10.18-12.98,22.18-24.28,34.59-35.12c4.6-4.02,9.25-7.99,14.09-11.72
	c0.54-0.42,1.12-0.85,1.14-2.11c-44.34-3.12-85.95-14.88-123.27-39.72c-6.22-4.14-12.5-8.22-18.32-13.13
	c1.17-0.92,1.84-0.1801,2.5,0.13c15.65,7.3,32.03,12.16,48.99,15.33c9.9,1.85,19.81,3.5,29.79,4.76
	c3.51,0.4399,7.04,0.66,10.58,0.75c8.85,0.24,17.7,0.63,26.54,0.54c6.45-0.0601,12.9-0.61,19.35-1.03
	c18.35-1.2,36.34-4.79,54.34-8.22c10.15-1.9399,20.09-4.9,30.18-7.2c19.87-4.55,38.21-13.03,56.48-21.73
	c7.85-3.74,15.77-7.34,23.63-11.05c1.02-0.48,2.24-0.6801,3.14-2.01c-1.84-0.52-3.56-0.3199-5.24-0.1899
	c-19.63,1.46-39.26,0.55-58.84-0.72c-12.99-0.84-25.97-2.34-38.88-4.1801c-5.81-0.83-11.72-0.92-17.52-1.8
	c-12.68-1.92-25.06-5.28-37.5-8.34c-22.04-5.4301-43.81-11.8-65.12-19.65c-22.13-8.15-43.3-18.29-63.14-31.11
	c-11.68-7.54-22.63-16.01-32.54-25.8c-3.53-3.49-6.47-7.45-9.43-11.39c-0.35-0.47-0.67-0.98-0.88-1.52
	c-0.49-1.22-0.06-1.83,1.23-1.71c0.7,0.0601,1.38,0.3,2.06,0.4399c12.32,2.6,24.73,4.45,37.35,4.74
	c15.95,0.36,31.67-1.48,47.26-4.64c16.63-3.37,32.84-8.1899,48.52-14.7c1.62-0.67,3.21-1.39,4.82-2.09
	c-0.03-0.22-0.07-0.4399-0.1-0.66L484.0847,1180.08z"/>
<path class="st4" d="M323.7648,786.77c-1.41-0.79-2.73-0.56-4-0.59c-43.51-1.25-85.36,6.41-125.57,23.14
	c-26.78,11.14-51.31,26.05-73.87,44.2c-8.33,6.71-16.27,13.88-23.5,21.81c-0.71,0.78-1.53,1.46-2.33,2.15
	c-0.58,0.49-1.28,0.68-1.93,0.2s-0.73-1.24-0.45-1.91c0.6-1.4,1.24-2.79,2-4.11c6.92-12.07,15.16-23.2,24.23-33.74
	c20.61-23.96,45.09-43.16,72.28-59.05c26.83-15.69,55.27-27.6,85.2-35.95c19.73-5.51,39.8-9.26,60.18-11.51
	c22.14-2.45,44.32-2.74,66.52-1.34c8.32,0.52,16.62,1.32,24.98,1.36c8.73,0.04,17.34-1.05,25.95-2.24
	c11.4-1.57,22.84-2.97,33.82-6.7c10.35-3.52,20.74-6.88,30.75-11.35c3.35-1.5,6.38-3.5,9.42-5.51c0.95-0.63,1.97-1.65,3.17-0.73
	c1.31,1.02,0.7,2.42,0.14,3.55c-2.36,4.73-4.55,9.57-7.3,14.06c-4.86,7.92-10.31,15.45-16.52,22.38
	c-7.4,8.25-15.63,15.57-24.46,22.26c-16.73,12.67-34.78,23.21-53.13,33.28c-5.15,2.83-10.21,5.82-15.43,8.51
	c-5.85,3.01-11.81,5.79-17.76,8.6c-12.55,5.92-25.51,10.97-37.45,18.04c-0.49,0.29-0.57,1.17-0.43,1.64
	c0.21,0.54,1.42,0.64,2.18,0.3c21.61-9.58,43.64-18.08,66.14-25.31c8.5-2.73,17.07-5.2,25.4-8.46c9.23-3.61,17.88-8.38,26.42-13.31
	c6.5-3.76,13.15-7.35,18.56-12.72c0.32-0.32,0.74-0.61,1.17-0.74c1.05-0.31,1.7,0.18,1.44,1.24c-0.22,0.88-0.76,1.7-1.24,2.5
	c-5.51,9.24-13.19,16.48-21.45,23.15c-17.71,14.3-37.74,24.62-58.33,33.98c-11.14,5.06-22.75,8.92-34.05,13.57
	c-11.17,4.6-21.56,10.46-31.18,17.69c-24.05,18.08-44.87,39.31-61.97,64.1c-7.63,11.06-14.31,22.66-18.73,35.43
	c-1.07,3.1-1.9,6.3-2.8,9.46c-0.33,1.15-0.57,2.4-2.03,2.55c-1.47,0.15-1.98-1.04-2.49-2.11c-3.57-7.52-5.35-15.54-6.29-23.75
	c-1.85-16.17-0.09-32.11,3.1-47.97c5.16-25.69,14.55-49.82,27.24-72.67c9.16-16.5,19.99-31.84,33.14-45.46
	c0.33-0.34,0.65-0.68,0.94-1.05c0.13-0.17,0.17-0.42,0.34-0.87L323.7648,786.77z M976.5948,900.78c-0.54,0.76-1.72,0.5-1.91-0.41
	c-0.32-1.5-0.38-2.99-0.36-4.47c0.2-14.45-3.1-28.23-8.17-41.61c-6.86-18.1-17.09-34.2-29.39-49.08
	c-18.07-21.85-39.16-40.21-63.21-55.16c-13.9-8.65-28.52-15.92-43.78-21.87c-4.19-1.63-4.64-1.35-4.38,3.25
	c0.75,13.56,3.08,26.73,8.17,39.49c8.63,21.6,19.7,41.86,32.02,61.51c5.62,8.96,10.43,18.41,16.19,27.29
	c4.73,7.3,9.37,14.66,15.17,21.19c0.89,1,3.06,2.88,2.2,3.7c-1.28,1.14-2.86-0.77-3.97-1.53c-18.86-12.89-37.23-26.32-52.05-44.02
	c-12.42-14.83-23.31-30.68-32.62-47.63c-12.46-22.7-21.54-46.7-28.01-71.74c-1.99-7.69-2.33-15.56-2.85-23.4
	c-0.64-9.63-0.34-19.27,0.13-28.89c0.81-16.68,3.82-32.88,10.41-48.33c2.49-5.83,4.64-11.81,6.94-17.72c0.95-2.45,0.6-3.7,2.88-5.33
	c1.64-0.69,1.76,1.22,1.72,1.78c-0.67,11.83,1.37,23.42,3.04,35.04c0.74,5.12,1.34,10.25,2.15,15.36
	c1.39,8.84,4.45,17.29,6.25,26.04c0.31,1.5,1.19,2.36,2.69,2.93c18.57,7.03,35.73,16.72,52.08,27.91
	c6.4,4.38,12.86,8.68,19.26,13.06c8.2,5.62,15.7,12.12,23.17,18.65c6.72,5.88,13.21,12.05,19.24,18.64
	c16.09,17.57,29.9,36.74,40.91,57.86c3.93,7.54,6.38,15.67,9,23.7c1.89,5.81,3.47,11.71,4.67,17.71
	c2.55,12.76,1.47,25.24-2.73,37.49c-1.07,3.13-2.87,5.87-4.83,8.6h-0.03L976.5948,900.78z"/>
<path class="st4" d="M384.2448,677.86c12.22,0.48,23.14,0.8,34.04,1.8c10.41,0.95,20.83,1.86,31.24,2.75
	c8.3,0.55,15.51,0.3,23.25-0.19c7.76-0.49,14.73-1.37,22.04-2.56c8.16-1.34,16.7-4.09,23.48-7.17c0.82-0.44,1.7-0.82,2.6-1.09
	c2.16-0.66,3.61-0.19,4.64,1.4c0.95,1.19,0.37,3.07-0.73,4.75c-2.4,2.47-5.83,5.53-9.94,7.88c-13.69,6.22-25.39,11.3-39.62,16.3
	c-10.35,3.63-21.16,5.38-31.85,7.67c-11.65,2.5-23.46,3.5-35.29,4.4c-4.45,0.34-34.99,1.16-45.76,1.89
	c-12.54,0.85-56.57,6.42-65.8,9.23c-12.71,3.86-25.27,8.17-37.7,12.85c-12.54,4.73-25.07,9.48-37.33,14.89
	c-20.15,8.9-39.71,18.92-57.34,32.26c-10.3,7.79-20.44,15.83-30.24,24.25c-6.93,5.95-13.6,12.3-19.22,19.59
	c-0.67,0.87-1.92,1.23-2.83,0.93c-1.09-0.59-1.04-1.48-0.82-2.59c0.31-1.51,1.06-2.86,1.73-4.23c6.31-13.01,14.68-24.61,24.26-35.36
	c9.08-10.19,18.86-19.66,29.2-28.59c5.42-4.69,10.7-9.57,16.42-13.87c6.76-5.08,13.57-10.08,20.86-14.44
	c8.36-5.01,16.36-10.64,24.87-15.42c16.83-9.46,34.27-17.45,52.67-23.56c9.3-3.09,18.45-6.14,28.06-8.24
	c13.85-2.69,27.74-4.71,41.9-5.33c11.53-0.51,23.01-0.5,33.22-0.19L384.2448,677.86z M1008.6548,895.8
	c-1.14-0.15-0.59-2.63-0.48-3.72c1.53-16.29-1.18-32.13-5.36-47.74c-2.89-10.8-7.33-21.07-12.29-31.1
	c-6.41-12.95-14.93-24.51-24.37-35.3c-6.86-7.85-14.29-15.28-22.77-21.51c-0.89-0.66-2.14-1.07-2.38-2.47
	c0.79-0.94,1.69-0.46,2.53-0.17c3.03,1.05,5.67,2.83,8.32,4.57c8.76,5.74,17.03,12.18,24.89,19.06c7.63,6.68,13.86,14.68,19.24,23.3
	c6.01,9.64,10.21,20.08,13.73,30.84c2.84,8.69,3.96,17.68,4.38,26.71c0.48,10.35-0.23,20.68-2.86,30.78
	c-0.58,2.22-1.22,6.66-2.58,6.74L1008.6548,895.8z M1015.6747,799.32c1.57-0.34,2.02,0.79,2.6,1.58
	c7.48,10.26,12.0001,21.7,13.72,34.28c0.76,5.58,1.74,11.11,1.74,16.78c0,12.85-2.8,24.9-9.52,35.94c-0.73,1.2-1.57,2.33-2.41,3.46
	c-0.18,0.24-0.56,0.33-0.81,0.47c-0.59-0.39-0.44-0.86-0.31-1.28c3.19-9.81,4.1201-19.96,4.6201-30.18
	c0.53-10.92,0.64-21.8-1.13-32.65c-1.35-8.27-3.38-16.3-6.98-23.9c-0.66-1.4-1.78-2.74-1.51-4.49L1015.6747,799.32z"/>
<path class="st5" d="M537.8948,958.87c-0.35,0.28-0.29,0.84,0.08,1.09c1.54,1.01,3.04,2.04,4.61,2.96
	c22.25,12.92,45.63,23.21,70.33,30.5c5.45,1.61,10.81,3.53,16.31,5.04c14.7,4.02,29.65,6.3,44.83,7.27c2,0.13,3.98,0.59,5.97,0.9
	c0.47,0.07,0.99,0.17,1.07,0.73c0.1,0.76-0.53,1.08-1.08,1.17c-1.75,0.28-3.52,0.51-5.28,0.66c-10.05,0.82-20.13,1.42-30.18,0.92
	c-9.81-0.49-19.64-1.29-29.37-2.92c-5.54-0.93-11.12-1.53-16.7-2.12c-8.81-0.93-17.47-2.71-26.14-4.39
	c-0.66-0.13-2.07-0.84-2.27,0.07c-0.33,1.39,7.4,4.82,11.28,6.75c10.73,5.32,21.44,10.69,32.48,15.34
	c8.22,3.47,16.83,5.71,25.51,7.64c14.84,3.3101,29.93,4.7,45.09,5.72c11.15,0.75,22.28,0.66,33.39,0.23
	c22.04-0.85,44.01-2.8,65.57-7.8101c8.43-1.96,16.77-4.29,25.02-6.91c4.12-1.31,8.27-2.5,12.44-3.72c1.73-0.51,3,1.83,1.52,2.86
	c-0.09,0.06-0.17,0.11-0.26,0.14c-1.53,0.64-5.6,2.55-7.18,3.07c-1.92,0.63-10.78,5.2-11.39,5.53
	c-15.65,8.53-25.42,11.73-42.12,17.91c-24.51,9.0699-49.54,16.45-75.27,21.13c-19.47,3.54-38.98,6.92-58.63,9.45
	c-12.12,1.5601-24.29,2.25-36.49,2.89c-10.7,0.5601-21.33-0.41-31.99-0.74c-5.91-0.1899-11.87-0.22-17.73-1.24
	c-1.74-0.3-3.25,0.35-4.77,1.0699c-5.9,2.78-11.78,5.61-17.72,8.3c-11.88,5.4-24,10.23-36.25,14.73c-1.06,0.39-2.33,0.49-3.07,1.6
	c0.45,1.0601,1.48,1.12,2.34,1.36c5.15,1.4399,10.09,3.46,15.07,5.38c18.86,7.28,38.33,12.39,58.16,16.24
	c13.28,2.58,26.66,4.47,40.12,5.62c12.75,1.09,25.55,1.67,38.38,1.3199c8.65-0.23,17.3-0.49,25.92-1.25
	c17.06-1.5,33.86-4.33,50.14-9.85c1.21-0.41,2.93-1.49,3.72-1.02c0.58,0.74-0.09,1.09-0.44,1.47
	c-20.21,21.92-43.59,39.74-69.81,53.86c-4.9,2.64-9.8,5.3199-15.12,7.09c-0.45,0.15-0.99,0.3-0.98,0.88
	c0.01,0.76,0.65,0.97,1.24,0.9399c2.48-0.13,4.96-0.29,7.44-0.5c17.26-1.49,33.89-5.62,49.95-12.04
	c9.16-3.67,17.71-8.5699,26.04-13.83c0.98-0.62,2.45-2.04,3.43-1.53c1.16,1.26-1.92,3.21-3.29,4.3
	c-6.68,5.3-13.17,10.87-20.49,15.34c-28.27,17.24-57.92,31.47-89.72,40.97c-20.65,6.17-41.78,9.6801-63.28,11.14
	c-3.51,0.24-7.1-0.02-11.08,1.05c5.73,1.49,11.1,2.16,16.43,2.98c11.49,1.77,23.07,2.58,34.7,2.98c10.93,0.38,21.8-0.3,32.67-1.14
	c9.45-0.73,18.89-1.61,28.22-3.47c15.07-3,29.54-7.9399,43.71-13.76c10.21-4.1899,20-8.7,29.15-14.99c0.56-0.39,1.64-1.49,3.24-0.17
	c1.25,1.79-1.72,4.63-3.48,6.77c-3.7707,4.5859-8.0366,8.7411-12.72,12.39c-11.89,9.28-24.76,16.92-38.55,23.04
	c-0.83,0.37-1.86,0.52-2.32,1.49c0.3,0.9301,1.12,0.77,1.77,0.8c11.15,0.61,22.15,2.36,33.12,4.3c4.8,0.85,9.51,2.03,13.99,4.01
	c1.25,0.55,3.09,1.01,2.85,2.73c-0.27,1.83-2.17,2.0601-3.69,2.12c-5.93,0.24-11.82,0.72-17.71,1.41
	c-19.35,2.28-38.55,5.55-57.84,8.22c-12.69,1.75-25.1,5.02-37.19,9.25c-0.77,0.27-1.55,0.51-2.3,0.8199
	c-0.2,0.08-0.34,0.3101-0.65,0.61c0.69,1.25,2.06,1.37,3.19,1.76c8.98,3.11,18.18,5.4399,27.5,7.22c11.65,2.23,21.06,2.92,32.9,3.73
	c2.24,0.15,8.62,0,9.06,0.75c0.22,1.22-4.03,1.41-5.35,1.4399c-6.52,0.13-11.46-0.02-17.98-0.36c-9.71-0.5-19.45-0.63-29.14-1.39
	c-10.39-0.8101-20.73-2.1801-31.05-3.79c-16.65-2.59-33.15-5.89-49.5-9.96c-37.98-9.46-74.74-22.37-110.06-39.29
	c-18.96-9.08-37.29-19.28-54.74-31.03c-0.79-0.53-1.56-1.0699-2.31-1.65c-0.15-0.11-0.15-0.41-0.21-0.61
	c65.53,4.08,127.77-7.62,186.1-38.16l-0.22-0.87c-3.33,0.0699-6.66,0.1-9.99,0.2c-5.33,0.16-10.66,0.5-15.99,0.51
	c-7.34,0.02-14.67,0.21-22.03-0.34c-5.65-0.42-11.34-0.66-17.01-0.97c-11.26-0.61-22.42-2.11-33.63-3.15
	c-10.84-1-21.59-3.03-32.4-4.4399c-12.7-1.65-25.3-3.9301-37.93-5.98c-8.68-1.41-17.04-4.16-25.6-6.1
	c-12.28-2.79-24.19-6.83-36.19-10.55c-2.31-0.72-4.59-1.15-6.98-1.02c-17.32,0.9301-34.63,0.36-51.9-0.9301
	c-25.51-1.91-50.55-6.5-74.79-14.9c-8.29-2.88-16.2-5.38-24.04-9.37c-1-0.51-3.02-1.5601-2.58-2.96c0.5-1.58,2.21-1.03,3.4-0.62
	c14.69,4.98,30.1,6.42,45.26,9.02c7.15,1.23,45.43,3.0601,51.04,2.8199c16.63-0.6899,33.05-3.14,49.36-6.26
	c16.68-3.1899,33.04-7.65,49.07-13.26c0.2-0.0699,0.35-0.28,0.73-0.61c-0.9-0.64-1.81-0.36-2.66-0.27
	c-13.78,1.5601-27.62,2.55-41.45,3.61c-3.46,0.27-6.92,0.4-10.39,0.37c-10.05-0.1-20.12,0.09-30.13-0.54
	c-13.49-0.85-28.17-2.65-40.47-5.1c-2.28-0.58-7.23-1.47-6.86-3.41c0.1-1.1899,3.94-0.25,5.51-0.08c10.86,1.2,21.74,1.55,32.66,1.36
	c7.23-0.12,14.45-0.24,21.67-0.64c14.71-0.8101,29.28-2.65,43.77-5.17c23.2175-4.0364,46.0161-10.1921,68.11-18.39
	c9.39-3.48,18.42-7.87,27.07-12.92c8.54-4.98,17.15-9.8199,25.69-14.79c7.42-4.3101,14.65-8.9301,21.74-13.76
	c8.86-6.03,17.7-12.07,26.29-18.46c9.06-6.74,17.45-14.23,25.04-22.59c1.38-1.52,1.22-2.16-0.67-2.61
	c-7.59-1.8-14.72-4.82-21.78-8.04c-3.03-1.38-7.99-3.63-10.88-5.28c-2.12-1.21-4.07-1.15-6.31-0.42
	c-14.21,4.63-28.3,9.55-42.25,14.93c-19.36,7.47-39.02,14.16-58.73,20.64c-12.73,4.19-25.71,7.55-38.85,10.24
	c-8.71,1.78-17.25,4.36-26.08,5.59c-8.35,1.16-13.87,1.64-25.11,2.26c-8.43,0.39-10.9,0.38-18.94,0.84
	c-4.27,0.11-7.13,0.11-8.08,0.09c-13.26-0.25-26.52,0.13-39.73-2c-13.72-2.21-27.41-4.07-40.7-8.13c-6.62-2.02-8.84-2.93-18.63-7.63
	c-1.8-0.87-4.58-2.59-6.14-3.84c-2.78-2.21-2.6-2.24-5.12-4.92c-0.39-0.44-0.8-1.01-1.17-1.47c-0.63-0.79-0.72-1.67-0.26-2.54
	c0.5-0.95,1.66-1.4,2.71-1.17c0.61,0.14,1.18,0.37,1.76,0.64c8.82,3.6,11.79,4.14,19.43,5.79
	c10.3459,2.2386,20.8138,3.8714,31.35,4.89c1.7,0.16,3.41,0.31,5.11,0.34c16.15,0.33,32.22-0.19,48.15-3.26
	c13.56-2.61,27.08-5.43,40.61-8.2c12.17-2.5,24.12-6.01,35.71-10.49c9.82-3.79,19.67-7.59,28.49-13.55
	c5.16-3.49,10.5-6.72,15.98-9.67c4.75-2.56,9.46-5.14,13.97-8.1c9.04-5.92,18.14-11.77,27.27-17.55c2.41-1.52,4.94-2.83,7.48-4.11
	c5.2-2.61,9.69-6.37,14.84-9.03c9.81-5.06,19.86-9.36,30.56-12.44c12.72-3.67,25.55-6.35,38.67-7.62c8.73-0.84,17.53-0.6,26.23,0.67
	c13.37,1.96,26.79,3.89,39.88,7.18c17.36,4.36,34.56,9.34,50.92,16.88c13.16,6.06,25,14.02,35.65,23.8
	c1.22,1.12,2.43,2.29,3.05,3.89c0.53,1.39-0.01,2.11-1.43,1.92c-0.35-0.05-0.69-0.17-1.03-0.28c-12.23-3.87-24.71-6.73-37.34-8.83
	c-10.42-1.73-20.91-2.26-31.53-1.44c-19.93,1.56-39.4,5.66-58.87,9.86c-0.8,0.17-1.7,0.18-2.54,0.87L537.8948,958.87z
	 M894.0948,911.46c-0.89,1.23-7.03-2.2-10.15-3.52c-23.24-9.82-46.34-21.12-66.73-36.05c-6.03-4.41-11.69-9.29-17.12-14.44
	c-12.66-12-24.69-24.6-36.19-37.71c-6.02-6.86-11.66-14.05-16.61-21.74c-0.31-0.48-0.68-0.93-1.2-1.65
	c-0.93,1.18-0.37,2.19-0.2,3.12c2.76,14.84,8.17,28.71,15.43,41.88c11.56,20.97,27.29,38.37,45.9,53.28
	c8.72,6.99,18.02,13.11,27.72,18.65c10.82,6.18,21.83,11.98,33.35,16.78c0.98,0.41,1.92,0.92,2.82,1.49
	c0.64,0.4,0.96,1.07,0.73,1.84c-0.24,0.78-0.9,1.13-1.64,1.1c-0.82-0.03-1.64-0.21-2.44-0.42c-9.05-2.46-17.96-5.34-26.66-8.82
	c-9.58-3.83-19.33-7.2-28.73-11.51c-21.75-9.98-41.38-23.01-58.73-39.55c-11.02-10.51-21.23-21.66-30-34.12
	c-2.47-3.51-4.5-7.26-6.24-11.16c-4.67-10.51-9.42-20.99-13.89-31.59c-4.71-11.17-10.42-21.82-15.88-32.61
	c-1.66-3.28-3.42-6.52-4.88-9.89c-4.29-9.91-9.14-19.56-14.03-29.17c-5.81-11.42-12.47-22.36-20.29-32.56
	c-9.88-12.89-20.07-25.52-30.31-38.12c-9.49-11.68-19.12-23.28-27.77-35.59c-9.27-13.2-17.52-27.07-25.61-41.03
	c-5.18-8.94-10.06-18.02-14.31-27.42c-3.46-7.67-6.81-15.4-8.86-23.61c-1.47-5.86-3.41-11.61-4.34-17.6
	c-0.14-0.93-0.25-1.88-0.22-2.82c0.03-1.01,0.48-1.85,1.54-2.15c1.06-0.31,1.9,0.16,2.44,1.02c0.56,0.9,0.97,1.89,1.42,2.86
	c5.05,10.86,9.71,21.9,15.66,32.33c3.3,5.79,6.97,11.22,11.48,16.19c15.62,17.26,32.34,33.35,49.98,48.52
	c14.48,12.45,29.43,24.3,44.24,36.34c9.19,7.47,18.06,15.34,26.54,23.64c5.26,5.15,9.2,9.97,14.18,15.38c0.47,0.51,1.92,2.02,3,1.74
	c3.59-0.9,1.52-8.11,2.12-12.16c1.35-9.03,3.1-17.96,5.5-26.79c5.02-18.43,10.57-36.69,17.1-54.64c1.18-3.25,2.8-6.28,4.49-9.28
	c0.46-0.82,0.99-1.63,1.62-2.33s1.45-1.44,2.46-0.82c0.87,0.53,0.54,1.48,0.36,2.27c-2.82,11.94-3.63,24.13-4.47,36.3
	c-0.42,6.14-0.4,12.33-0.17,18.48c0.52,13.86,1.66,27.68,3.8,41.4c4.46,28.6,12.12,56.31,22.89,83.17
	c10.63,26.53,23.89,51.63,40.39,75c9.67,13.7,20.44,26.48,32.34,38.26c12.6,12.48,27.48,22.82,42.94,31.59
	c4.12,2.33,8.48,4.25,12.72,6.37c0.72,0.36,3.06,0.71,2.49,1.86h0.02L894.0948,911.46z M682.4747,1308.77
	c-19.97,11.37-36.7,25.49-50.01,43.48c-1.47,1.99-3.64,5.08-3.4,6.59c1.07,0.91,1.91,0.17,2.7-0.11
	c14.54-5.2,29.23-9.92,43.92-14.65c18.93-6.08,38.51-10.34,58.38-10.96c0.4-0.01,0.81-0.01,1.22,0c-0.08,1.15-0.93,1.08-1.53,1.25
	c-24.69,6.85-48.17,16.65-70.38,29.41c-6.06,3.48-11.81,7.5-17.65,11.35c-2.15,1.42-2.1,2.3199,0.25,3.4399
	c3.53,1.6801,7.12,3.25,10.76,4.6801c15.14,5.98,30.65,10.78,46.55,14.23c9.03,1.96,18.17,3.35,27.36,4.4301
	c9.42,1.11,18.83,2.3101,28.32,2.4301c9.25,0.12,18.49,0.04,27.62-1.8199c0.79-0.16,1.95-0.95,2.58-0.09
	c0.42,1.1801-1.14,1.66-1.96,2.11c-6.05,3.29-12.24,6.26-18.85,8.3c-1.44,0.4399-2.85,0.98-4.69,1.64c-0.34,0.12-0.37,0.6-0.05,0.77
	c2.28,1.22,4.08,2.25,5.95,3.13c11.37,5.36,23.06,9.78,35.44,12.16c6.76,1.3,13.72,1.42,20.53,0.38c1.66-0.25,3.32-0.4301,5.03-0.63
	c0.56-0.0699,1.08,0.42,0.98,0.97c-0.25,1.36-1.18,2.13-1.85,2.99c-5.15,6.5699-11.56,11.84-17.92,17.1801
	c-6.57,5.52-14.21,9.39-21.68,13.2c-11.39,5.8101-23.76,9.0601-36.19,12.22c-2.12,0.54-4.3,0.78-6.47,0.98
	c-1.22,0.11-2.55,0.7-3.92-0.64c2.62-1.62,5.61-1.77,8.27-2.76c2.78-1.04,5.62-1.92,8.33-3.1s5.33-2.59,7.93-4.01
	c2.6-1.4301,5.14-2.95,7.65-4.53c3.81-2.39,7.53-4.95,11.17-7.5699c1.5-1.08,2.96-2.23,4.4-3.4c1.92-1.58,3.86-3.16,5.38-5.1899
	c-0.35-0.28-0.52-0.53-0.7-0.54c-14.62-0.45-28.45-4.79-42.38-8.64c-6.16-1.7-12.24-3.7-18.56-4.89
	c-12.98-2.46-25.91-2.37-38.89-0.11c-7.03,1.23-13.9,3.03-20.67,5.26c-0.86,0.28-1.71,0.86-2.99,0.28
	c2.27-2.26,4.92-3.6801,7.55-5.11c11.48-6.27,23.56-11.16,35.94-15.3199c2.13-0.72,4.22-1.5699,6.31-2.42
	c0.65-0.26,1.33-0.67,1.16-1.5601c-0.16-0.85-0.9-1.04-1.62-1.11c-0.94-0.1-1.89-0.15-2.84-0.1801
	c-10.31-0.41-20.63-0.66-30.85-2.15c-6.33-0.92-12.61-2.21-18.94-3.11c-8.7-1.23-17.15-3.72-25.79-5.17
	c-13.42-2.26-26.73-5.4399-40.44-5.6801c-17.53-0.3101-34.78,1.6899-51.76,6.0601c-21.66,5.5699-41.84,14.59-60.92,26.12
	c-10.44,6.3101-21.2,12.16-30.98,19.53c-2.46,1.85-4.87,3.77-7.31,5.66c-0.66,0.51-1.27,1.08-1.97,1.52
	c-0.9,0.5699-1.92,1.27-2.85,0.1801c-0.76-0.88-0.11-1.76,0.3-2.62c2.8-5.86,6.91-10.64,11.74-14.89c1.61-1.42,3.18-2.88,4.64-4.46
	c8.94-9.67,19.33-17.45,30.28-24.59c13.21-8.61,26.78-16.64,40.29-24.76c2.84-1.71,5.78-3.27,8.66-4.9301
	c0.89-0.51,2.01-0.74,2.74-2.3101c-9.77,0.46-19.21,1.79-28.72,1.87c-9.59,0.08-19.18,0.35-28.76-0.37
	c-9.51-0.72-19.06-1.04-28.97-3.85c1.97-0.63,3.27-0.41,4.54-0.34c9.36,0.52,18.73,0.5699,28.09,0.2
	c12.92-0.51,25.73-2.0601,38.49-4.22c22.1-3.74,43.43-9.98,63.89-19.09c10.72-4.78,21.03-10.4301,31.39-15.95
	c13.71-7.3,27.28-14.88,41.4-21.36c3.77-1.73,7.66-3.1899,11.52-4.71c0.95-0.37,1.96-0.84,3.84-0.1L682.4747,1308.77z
	 M442.9048,775.56c0.9,1.82-7.01,4.68-10.43,6.26c-9.39,4.34-18,9.23-26.97,14.32c-7.01,3.98-14.06,7.88-21.06,11.87
	c-13.1,7.46-25.56,15.87-37.59,24.96c-8.86,6.69-16.48,14.6-23.35,23.27c-0.72,0.9-1.4,1.68-2.09,2.53
	c-0.47,0.59-0.96,1.16-1.48,1.71c-0.41,0.44-0.7,0.87-0.28,1.25c0.61,0.43,1.65-0.47,2.27-0.88c13.96-9,28.13-17.64,43.45-24.18
	c10.4-4.44,21.29-7.26,32.41-9.27c0.58-0.11,1.18-0.19,1.76-0.19c1.11,0,2.22,0.16,2.48,1.49c0.24,1.26-0.6,1.98-1.6,2.48
	c-0.63,0.32-1.31,0.55-1.99,0.76c-17.98,5.62-33.98,15.02-49.3,25.73c-7.96,5.57-16.08,10.94-23.52,17.22
	c-9.05,7.64-18.85,14.42-26.68,23.44c-1.86,2.15-3.81,4.24-5.49,6.53c-7.81,10.58-16.07,20.86-22.11,32.64
	c-1.03,2-1.97,4.05-2.96,6.07c-0.63,1.29-1.27,2.78-3.04,2.45c-1.8-0.34-1.9-1.92-1.84-3.39c0.31-7.7,0.65-15.38,2.05-22.99
	c2.36-12.76,6.24-25.06,10.54-37.25c1.61-4.58,3.31-9.14,4.91-13.73c6.48-18.58,15.27-35.91,26.78-51.95
	c7.48-10.42,15.23-20.56,23.85-30.05c1.99-2.19,4.12-2.84,6.94-2.42c8.56,1.27,33.03,2.44,81.03-3.87c0.43-0.06,0.87-0.13,1.3-0.21
	c6.2-1.17,12.33-2.58,18.38-4.37c0.99-0.29,3.07-1.2,3.61-0.23L442.9048,775.56z M419.9148,739.03c20.81,0.96,41.13-2.28,61.16-7.53
	c6.75-1.77,13.45-3.89,19.58-7.41c1.02-0.58,2.15-1.01,3.27-1.38c1.09-0.36,2.14-0.13,2.86,0.85c0.72,0.97,0.62,2.01,0.08,3.02
	c-0.62,1.18-1.6,2.06-2.54,2.95c-11.87,11.17-25.28,19.98-40.44,26.01c-20.98,8.35-38.89,13.24-61.41,14.9
	c-7.33,0.54-24.5,1.13-31.84,1.48c-7.36,0.35-66.87-4.82-69.12-4.9c-11.27-0.43-22.48,0.1-33.71,1.3
	c-14.15,1.51-28.24,3.37-42.24,5.87c-11.24,2-22.19,5.03-32.85,9.1c-1.66,0.63-3.36,1.17-5.06,1.68c-0.27,0.08-0.77-0.05-0.94-0.26
	c-0.35-0.43-0.11-0.92,0.3-1.2c0.58-0.4,1.19-0.78,1.84-1.07c19.46-8.77,38.77-17.88,58.86-25.15c4.8-1.74,9.72-3.05,14.63-4.45
	c17.48-4.98,35.25-8.59,53.22-11.09c9.73-1.36,40.28-3.65,48.68-4.13c9.6-0.55,25.11,0.07,34.7,0.57c3.08,0.16,6.16,0.25,9.24,0.38
	c0,0,7.82,0.28,11.73,0.46"/>
<path class="st5" d="M859.1747,841.82c-1.06,0.6-5.4-5.53-7.49-8.45c-11.18-15.66-20.71-32.39-29.57-49.46
	c-7.55-14.55-14.17-29.49-19.53-44.98c-6.66-19.27-11.03-39.05-11.7-59.46c-0.57-17.14,1.39-34.1,6.13-50.65
	c0.64-2.22,0.84-4.63,2.38-6.92c1.08,1.41,0.66,2.73,0.62,3.92c-0.25,7.59,0.01,15.16,0.56,22.73c0.38,5.22,1.66,10.31,2.93,15.36
	c1.88,7.47,3.79,14.93,6.72,22.09c0.78,1.89,1.85,3.09,3.88,3.74c21.29,6.84,40.55,17.81,59.3,29.71
	c7.82,4.96,14.41,11.56,21.52,17.47c8.97,7.45,16.73,16.14,24.4,24.85c10.5,11.93,20.39,24.36,29.08,37.7
	c0.78,1.19,1.47,2.43,2.18,3.67c0.47,0.81,2.23,2.42,1.55,2.92c-0.64,0.35-2.29-1.41-2.92-2.25c-5.67-7.47-11.87-14.48-18.41-21.19
	c-10.34-10.62-20.92-20.97-32.76-29.97c-21.56-16.38-45.78-26.64-72.21-31.99c-2.32-0.47-4.61-1.11-6.94-1.54
	c-2.54-0.47-3.22,0.05-3.47,2.62c-0.5,5.24,0.06,10.42,1.14,15.55c2.45,11.62,6.05,22.92,10.02,34.09
	c4.05,11.39,7.93,22.86,13.23,33.76c5.6,11.51,11.04,22.98,18.38,33.55c0.51,0.73,2.24,2.39,0.98,3.14V841.82z M382.8948,888.56
	c-0.15-1.62,1.77-3.52,6.11-5.6c12.05-5.03,21.61-11.12,80.03-21.76c23.14-2.97,41.31-4.43,61.96-3.12
	c31.32,1.99,61.46,8.74,89.76,22.62c22.26,10.91,42.29,24.85,58.51,43.84c0.69,0.81,1.4,1.62,2.02,2.48
	c0.5,0.69,0.87,1.52,0.17,2.27c-0.82,0.88-1.73,0.48-2.56-0.07c-0.39-0.26-0.74-0.59-1.09-0.91
	c-20.68-18.75-44.86-31.16-71.36-39.38c-15.07-4.68-30.3-8.74-45.88-11.36c-6.07-1.02-12.21-1.63-18.33-2.38
	c-5.64-0.69-27.13-1.98-32.22-2.14c-13.63-0.45-27.23,0.1-40.85,0.95c-16.19,1.02-31.9,4.5-47.65,7.91
	c-9.97,2.16-20.12,4.88-30.08,7.07c-6.12,1.71-8.31,1.06-8.53-0.42L382.8948,888.56z M778.3748,926.06
	c-6.23-0.09-12.29-1.41-18.15-3.27c-12.55-3.98-24.96-8.34-36.7-14.42c-13.65-7.07-26.47-15.31-37.78-25.78
	c-9.62-8.9-20.54-16.03-31.55-23.05c-17.63-11.24-36.73-19.21-56.37-26.08c-8.63-3.02-17.22-6.12-26.2-7.91
	c-9.64-1.92-32.62-5.2-34.39-5.19c-0.92,0-1.72-0.14-1.91-1.15c-0.24-1.25,0.7-1.76,1.67-1.85c2.83-0.28,25.81-0.07,34.46,0.35
	c11.15,0.53,22.14,2.46,33.09,4.49c21.85,4.06,42.55,11.44,62.03,22.18c11.49,6.34,21.96,14.03,31.35,23.2
	c8.14,7.95,16.18,16.01,24.48,23.79c15.85,12.47,35.97,21.05,44.33,24.45c6.06,2.46,12.23,4.52,18.6,5.97
	c1.34,0.31,3.22,0.25,3.11,2.18c-0.1,1.83-1.98,1.77-3.32,2.03c-2.23,0.44-4.49,0.11-6.74,0.08v-0.02L778.3748,926.06z
	 M201.0948,741.04c-0.21-0.61,5.29-5.03,7.02-6.06c17-10.18,35.6-21.75,57.77-31.52c13.26-4.86,38.99-10.53,48.18-12.24
	c13.86-2.57,27.8-4.54,41.89-5.64c26.89-2.09,53.75-1.35,80.64-0.31c12.84,0.5,25.7,0.87,38.55,1.05
	c6.65,0.09,13.23-0.97,19.63-2.77c1.9-0.53,3.84-0.91,5.79-1.23c0.73-0.12,1.43,0.24,1.68,1.02s-0.13,1.45-0.77,1.81
	c-1.13,0.63-2.32,1.19-3.52,1.67c-14.61,5.87-29.69,9.81-45.44,10.95c-9,0.65-50.44,0.66-55.3,0.81c-6.31,0.2-41.8,2.02-48.74,2.67
	c-24.24,2.25-48.16,6.14-71.74,12.17c-11.61,2.97-23.21,5.87-34.45,10.06c-13.34,4.97-26.13,10.78-38.75,17.39
	c-0.75,0.43-1.93,1.3-2.42,0.16h-0.02L201.0948,741.04z"/>
<path class="st5" d="M824.3948,972.02c-4.61-0.22-9.23-0.58-13.83-0.89c-3.89-0.26-7.78-0.42-11.68-0.77
	c-16.44-1.47-32.23-5.58-47.51-11.63c-20.92-8.28-39.86-19.87-56.75-34.77c-14.79-13.05-27.43-27.86-36.7-45.38
	c-1.56-2.94-2.9-5.97-3.74-9.2c-0.16-0.6-0.33-1.21,0.26-1.59c0.57-0.38,1.16-0.06,1.63,0.31c0.65,0.51,1.29,1.04,1.87,1.64
	c18.95,19.63,40.23,36.44,62.85,51.59c13.51,9.05,27.52,17.26,42.26,24.17c7.86,3.68,16.19,6.1,24.33,9.03
	c9.96,3.59,20.28,5.8,30.58,8.04c6.85,1.49,13.87,1.72,20.79,2.71c5.53,0.79,11.07,1.24,16.64,1.36c1.07,0.02,2.29,0.1,2.43,1.52
	c0.13,1.32-0.94,1.87-1.96,2.19c-3.65,1.15-7.45,1.59-11.22,1.67c-6.75,0.14-13.51,0.65-20.26,0L824.3948,972.02z M1013.8647,872.77
	c-0.17,1.41-0.3,2.81-0.51,4.21c-0.07,0.49-0.48,0.87-0.98,0.84c-0.52-0.03-0.84-0.47-0.87-0.96c-0.1-1.77-0.1-3.55-0.22-5.31
	c-0.94-13.32-4.33-26.12-8.25-38.81c-0.31-1.02-0.73-2.01-0.94-3.05c-0.38-1.84,0.25-3.15,1.61-3.43c1.72-0.36,2.64,0.65,3.22,2.1
	c0.17,0.44,0.28,0.9,0.41,1.36c3.17,11.8,5.83,23.68,6.11,35.96c0.05,2.36,0.57,4.71,0.42,7.1L1013.8647,872.77z M1029.0248,862.32
	c0.1-2.36,0.1801-4.72,0.29-7.07c0.04-0.82,0.09-1.65,0.3-2.44c0.1899-0.72,0.77-1.2,1.5601-1.22c0.8-0.02,1.4,0.43,1.59,1.15
	c0.21,0.78,0.29,1.62,0.3,2.43c0.11,9.05-1.54,17.16-3.71,25.88c-0.09,0.34-0.41,1.35-0.5699,1.66c-0.3,0.6-0.49,1.48-1.4399,1.16
	c-0.66-0.23-0.61-0.96-0.54-1.53c0.35-2.69,0.61-5.4,1.17-8.05c0.48-4.45,0.91-7.96,1.05-11.97 M1030.9148,845.53
	c-1.13,0.02-2.33-1.41-2.3199-2.74c0.01-0.92,0.41-1.6,1.4-1.73c1.21-0.16,2.41,1.06,2.42,2.48c0.01,1.06-0.4301,1.81-1.5,1.99"/>
<path class="st6" d="M589.8647,1308.51c0,0-164.59-1.98-270.99-111.46c0,0,34.89,54.36,79.7,79.41c0,0-47.03-12.02-101.02-61.1899
	c0,0,40.73,65.46,107.91,90.78c0,0-81.64-15.71-161.88-95.79c0,0,51.38,82.11,145.27,112c96.03,30.5699,170.63,9.28,170.63,9.28
	c-28.95,0-40.23-4.1899-39.93-4.21c31-2.5601,70.31-18.83,70.31-18.83L589.8647,1308.51z"/>
<path class="st7" d="M351.5648,1263.3c0,0,43.57,31.3199,101.77,45.66c61.72,15.21,105.41,7.24,105.41,7.24
	c-33.19,10.91-59.78,11.89-59.78,11.89s4.01,1.09,29.7,4.89c0,0-22.8,5.1-85.02-3.66s-93.79-35.03-93.79-35.03
	c62.95,22.21,70.6,16.1801,70.6,16.1801c-37.27-14.7-68.89-47.16-68.89-47.16V1263.3z"/>
<path class="st0" d="M952.9548,895.5c-2.55-0.43-4.43-3.08-4.04-5.72c0.37-2.47,2.13-3.94,4.3-3.58c2.35,0.39,4.85,3.67,4.52,5.94
	C957.4247,894.29,955.1747,895.87,952.9548,895.5"/>
<path class="st8" d="M664.9948,801.24c-0.53-3.47-1.04-6.95-1.6-10.42c-5.3-33.07-17.98-62.9-38.57-89.43
	c-10.43-13.44-21.35-26.46-32.27-39.49c-18.66-22.27-34.55-46.45-48.64-71.82c-7.06-12.71-13.53-25.71-18.63-39.36
	c-0.24-0.63-0.4-1.33-1.2-1.74c0.84,8.59,2.18,17.02,3.95,25.38c3.74,17.73,9.07,34.92,17.88,50.87c1.42,2.56,3.02,5.02,4.52,7.53
	c0.35,0.58,0.88,1.31,0.02,1.78c-0.56,0.31-1.05-0.26-1.44-0.72c-1.87-2.25-3.46-4.74-5.57-6.79c-6.48-6.3-12.55-12.98-18.66-19.62
	c-5.42-5.89-10.09-12.36-14.58-18.93c-4.36-6.37-8.21-13.13-10.59-20.56c-0.45-1.4-1.35-2.18-2.78-3.5
	c0.73,5.43,0.59,10.27,1.67,14.96c3.06,13.24,6.4,26.42,11.42,39.08c4.23,10.68,8.82,21.21,14.52,31.21
	c10.53,18.48,25.23,33.47,40.64,47.77c18.12,16.83,37.44,32.33,55.19,49.59c12.63,12.28,24.83,24.91,34.91,39.44
	c3.33,4.81,6.41,9.78,9.81,14.75L664.9948,801.24z M578.0547,773.55c-0.08,0.09-0.13,0.2-0.2,0.21c-0.46,0.08-0.92,0.16-1.38,0.2
	c-18.66,1.36-36.44,6.26-53.64,13.43c-6.28,2.62-12.26,5.87-17.85,9.77c-1.22,0.85-2.58,1.75-3.17,3.69
	c43.51-13.05,87.04-16.18,131.43-5.11c-1.01-3.02-2.32-5.48-3.67-7.91c-10.55-19.05-25.01-34.46-43.3-46.25
	c-10.34-6.66-21.45-11.51-33.56-13.91c-3.21-0.64-6.48-0.98-9.73-1.42c-0.56-0.08-1.24-0.09-1.48,0.62c-0.22,0.66,0.2,1.1,0.73,1.41
	c1.72,1,3.44,2.01,5.18,2.98c11.72,6.48,22.93,13.72,33.02,22.57c0.92,0.81,2.16,1.41,2.48,2.75c-0.72,0.62-1.4,0.23-2.06,0.15
	c-3.72-0.48-7.41-1.16-11.16-1.43c-13.65-0.98-27.17,0.06-40.6,2.52c-4.38,0.8-8.79,1.42-13.08,2.64c-2.15,0.61-4.25,1.35-6.07,2.71
	c-0.76,0.57-1.48,1.3-0.96,2.37c0.39,0.8,1.2,0.48,1.88,0.48c7.39-0.03,14.77,0.26,22.15,0.53c14.46,0.52,28.7,2.6,42.79,5.82
	c0.83,0.19,1.96-0.05,2.26,1.19h-0.01V773.55z M489.6748,651.36c-8.23,0.44-15.95,0.45-23.61-0.7c-6.58-0.99-13.28-1.57-19.42-4.52
	c-0.43-0.2-0.94-0.19-1.23,0.27c-0.3,0.46-0.04,0.89,0.24,1.29c0.76,1.08,1.86,1.76,2.93,2.49c5.64,3.88,11.78,6.73,18.23,8.94
	c14.76,5.06,29.79,7.17,45.3,4.17c3.54-0.68,4.03-1.73,1.96-4.8c-7.95-11.8-14.58-24.3-19.96-37.46
	c-5.42-13.26-9.35-26.96-11.72-41.51c-1.85,3.35-2.36,6.7-2.78,10.03c-1.59,12.72-0.1,25.25,2.52,37.7
	c1.69,8.03,4.14,15.83,7.54,24.09V651.36z"/>
<path class="st8" d="M664.9948,801.24c-3.4-4.97-6.48-9.94-9.81-14.75c-10.08-14.53-22.28-27.15-34.91-39.44
	c-17.75-17.26-37.07-32.76-55.19-49.59c-15.4-14.31-30.11-29.3-40.64-47.77c-5.7-10-10.29-20.53-14.52-31.21
	c-5.02-12.67-8.36-25.84-11.42-39.08c-1.08-4.7-0.94-9.54-1.67-14.96c1.43,1.33,2.33,2.1,2.78,3.5c2.38,7.43,6.23,14.19,10.59,20.56
	c4.49,6.57,9.16,13.04,14.58,18.93c6.11,6.64,12.19,13.32,18.66,19.62c2.11,2.05,3.7,4.54,5.57,6.79c0.38,0.46,0.88,1.03,1.44,0.72
	c0.86-0.48,0.33-1.2-0.02-1.78c-1.5-2.52-3.11-4.97-4.52-7.53c-8.81-15.95-14.14-33.14-17.88-50.87
	c-1.77-8.36-3.11-16.79-3.95-25.38c0.81,0.41,0.96,1.11,1.2,1.74c5.1,13.64,11.57,26.65,18.63,39.36
	c14.09,25.37,29.97,49.54,48.64,71.82c10.92,13.03,21.84,26.05,32.27,39.49c20.59,26.53,33.27,56.36,38.57,89.43
	c0.56,3.47,1.07,6.95,1.6,10.42L664.9948,801.24z M552.4747,636.88c-0.08-0.15-0.16-0.31-0.23-0.46c-0.08,0.08-0.24,0.17-0.23,0.22
	c0.03,0.17,0.13,0.32,0.2,0.48C552.2947,637.0399,552.3748,636.9699,552.4747,636.88 M578.0547,773.55c-0.3-1.24-1.43-1-2.26-1.19
	c-14.09-3.22-28.33-5.3-42.79-5.82c-7.38-0.26-14.76-0.56-22.15-0.53c-0.68,0-1.49,0.32-1.88-0.48c-0.51-1.07,0.21-1.81,0.96-2.37
	c1.81-1.35,3.92-2.1,6.07-2.71c4.29-1.22,8.7-1.84,13.08-2.64c13.44-2.46,26.95-3.5,40.6-2.52c3.75,0.27,7.44,0.96,11.16,1.43
	c0.66,0.09,1.34,0.47,2.06-0.15c-0.32-1.35-1.56-1.95-2.48-2.75c-10.1-8.85-21.3-16.09-33.02-22.57c-1.74-0.96-3.46-1.98-5.18-2.98
	c-0.53-0.31-0.95-0.75-0.73-1.41c0.23-0.71,0.91-0.7,1.48-0.62c3.25,0.44,6.52,0.79,9.73,1.42c12.11,2.39,23.22,7.24,33.56,13.91
	c18.3,11.79,32.76,27.2,43.3,46.25c1.35,2.43,2.66,4.89,3.67,7.91c-44.38-11.07-87.91-7.94-131.43,5.11
	c0.59-1.93,1.95-2.83,3.17-3.69c5.59-3.9,11.57-7.15,17.85-9.77c17.19-7.18,34.98-12.07,53.64-13.43c0.46-0.03,0.92-0.12,1.38-0.2
	c0.07-0.01,0.12-0.13,0.2-0.21h0.01V773.55z M489.6748,651.36c-3.39-8.26-5.85-16.06-7.54-24.09c-2.62-12.45-4.1-24.98-2.52-37.7
	c0.42-3.34,0.92-6.68,2.78-10.03c2.3158,14.2372,6.2479,28.1639,11.72,41.51c5.38,13.15,12.01,25.66,19.96,37.46
	c2.07,3.07,1.58,4.12-1.96,4.8c-15.51,3-30.54,0.89-45.3-4.17c-6.45-2.21-12.59-5.06-18.23-8.94c-1.06-0.73-2.17-1.41-2.93-2.49
	c-0.28-0.39-0.53-0.82-0.24-1.29c0.29-0.46,0.81-0.48,1.23-0.27c6.14,2.94,12.84,3.53,19.42,4.52c7.65,1.15,15.37,1.13,23.61,0.7
	L489.6748,651.36z"/>
<path class="st8" d="M552.4747,636.88c-0.1,0.09-0.18,0.17-0.26,0.24c-0.07-0.16-0.17-0.31-0.2-0.48c-0.01-0.06,0.15-0.15,0.23-0.22
	C552.3246,636.58,552.4047,636.73,552.4747,636.88"/>
<path class="st9" d="M519.7347,620.6c0.42,2.09,1.38,3.99,2.33,5.86c7.02,13.77,15.82,26.29,26.48,37.48
	c9.72,10.21,20.33,19.42,31.21,28.36c13.06,10.73,25.16,22.46,36.7,34.82c11.51,12.33,23.47,24.24,32.92,39.17
	c-1.24-5.32-3.4-9.57-5.25-13.96c-4.89-11.64-11.56-22.23-18.81-32.48c-8.33-11.78-17.69-22.75-26.77-33.95
	c-6.13-7.55-12.31-15.07-17.97-22.98c-13-18.2-19.99-30.07-29.97-50.14c0.35,2.51,0.93,5.13,1.62,7.74
	c3.13,11.72,8.04,22.73,13.23,33.64c2.47,5.2,5.45,10.1,8.44,15c0.44,0.73,0.83,1.56,0.02,2.21c-0.71,0.56-1.29-0.18-1.82-0.54
	c-10.66-7.29-20.9-15.09-30.01-24.3c-7.9189-8.0026-15.0981-16.7047-21.45-26c-0.64-1.37-1.29-2.74-1.91-4.12
	c-0.6-1.35-1.17-2.72-1.75-4.08c0.54,2.95,1.1,5.83,2.77,8.27H519.7347z M555.7848,761.89c1.36,1.61,2.49,1.87,3.66,1.98
	c10.82,0.98,20.18,5.77,29.29,11.2c0.54,0.32,1.34,0.58,1.03,1.63c-1.29,0.5-2.71,0.3-4.09,0.38c-10.72,0.64-21.11,2.88-31.26,6.32
	c-1.01,0.34-2.32,0.45-2.65,2.07c11.59-0.77,22.9-2.52,34.42-1.96c11.4,0.56,22.62,2.08,34.06,4.66
	c-6.81-16.11-33.74-43.78-43.05-44.08c6.5,5.75,12.75,11.29,16.57,19.08c-6.39-0.85-12.53-2.18-18.86-2.24
	c-6.25-0.06-12.52-0.8-19.13,0.95h0.01L555.7848,761.89z M509.5748,660.02c-2.5-2.31-4.78-4.31-6.36-6.96
	c-8.72-14.64-14.94-30.23-17.78-47.09c-0.11-0.67-0.03-1.47-1.09-1.56c-0.64,0.44-0.69,1.15-0.67,1.84c0.07,2.34,0.05,4.7,0.3,7.02
	c1.26,11.48,4.03,22.61,7.91,33.47c0.59,1.66,1.19,3.31,1.83,4.95c0.45,1.16,0.05,1.81-1.13,1.96c-1.74,0.22-3.49,0.4-5.24,0.57
	c-7.59,0.73-15.18,1.54-22.75-0.3c-0.52-0.13-1.18-0.29-1.44,0.5c5.52,5.39,33.95,8.93,46.41,5.61h0.01V660.02z"/>
<path class="st9" d="M520.6248,620.53c6.37,9.31,13.52,17.97,21.45,26c9.11,9.21,19.35,17.01,30.01,24.3
	c0.54,0.37,1.12,1.1,1.82,0.54c0.81-0.65,0.43-1.49-0.02-2.21c-2.99-4.9-5.97-9.8-8.44-15c-5.18-10.91-10.09-21.92-13.23-33.64
	c-0.7-2.61-1.28-5.22-1.62-7.74c9.98,20.07,16.97,31.94,29.97,50.14c5.65,7.91,11.84,15.43,17.97,22.98
	c9.08,11.19,18.44,22.17,26.77,33.95c7.25,10.25,13.92,20.84,18.81,32.48c1.85,4.39,4.01,8.64,5.25,13.96
	c-9.45-14.92-21.41-26.84-32.92-39.17c-11.54-12.36-23.64-24.09-36.7-34.82c-10.88-8.93-21.49-18.15-31.21-28.36
	c-10.66-11.2-19.46-23.72-26.48-37.48c-0.96-1.87-1.91-3.77-2.33-5.86c0.3-0.02,0.59-0.05,0.89-0.07H520.6248z M555.7848,761.89
	c6.61-1.76,12.88-1.01,19.13-0.95c6.32,0.06,12.47,1.39,18.86,2.24c-3.82-7.79-10.06-13.32-16.57-19.08
	c9.31,0.3,36.24,27.98,43.05,44.08c-11.1959-2.5428-22.5926-4.1021-34.06-4.66c-11.52-0.56-22.83,1.19-34.42,1.96
	c0.33-1.63,1.64-1.73,2.65-2.07c10.15-3.44,20.54-5.68,31.26-6.32c1.38-0.08,2.79,0.12,4.09-0.38c0.3-1.06-0.5-1.31-1.03-1.63
	c-9.11-5.44-18.47-10.22-29.29-11.2c-1.17-0.11-2.3-0.36-3.66-1.98h-0.01L555.7848,761.89z M509.5748,660.02
	c-12.47,3.32-40.9-0.21-46.41-5.61c0.26-0.79,0.93-0.63,1.44-0.5c7.56,1.84,15.15,1.03,22.75,0.3c1.75-0.17,3.5-0.34,5.24-0.57
	c1.18-0.15,1.58-0.8,1.13-1.96c-0.63-1.64-1.24-3.29-1.83-4.95c-3.88-10.86-6.65-21.99-7.91-33.47c-0.25-2.32-0.23-4.68-0.3-7.02
	c-0.02-0.7,0.03-1.4,0.67-1.84c1.06,0.09,0.98,0.9,1.09,1.56c2.84,16.86,9.05,32.45,17.78,47.09c1.58,2.64,3.86,4.65,6.36,6.96
	h-0.01V660.02z"/>
<path class="st9" d="M520.6248,620.53c-0.3,0.02-0.59,0.05-0.89,0.07c-1.68-2.44-2.24-5.32-2.78-8.27c0.58,1.36,1.15,2.73,1.75,4.08
	c0.62,1.38,1.27,2.75,1.91,4.12H520.6248z"/>
<path class="st2" d="M854.8647,1321.23c0,0-1.64,0.01-1.97,2.3199c-0.02,1.6,1.42,1.48,1.42,1.48s1.82,0.1,1.86-2.42
	c-0.27-1.51-1.31-1.38-1.31-1.38 M842.7347,1345.6l5.91,3.95c0,0,1.58,2.05,3.26-0.8199s8.54-17.49,9.71-20.4301s0.88-5,0.88-5
	s-12.03,12.97-19.86,19.6899c-0.86,1.0601-1.13,1.75,0.11,2.62h-0.01V1345.6z M833.7148,1337.63c0,0,2.12,2.77,3.27,3.38
	s1.21,1.02,2.59-0.1c1.38-1.11,11.53-8.77,8.22-12.37c-3.2,2.97-9.51,7.33-14.09,9.09H833.7148z M1064.0048,1088.8101
	c0,0,1.25-10.8101,1.75-15.61s0.6801-5.4,4.0699-5.35c3.38,0.05,4.71,0.05,4.54,2.37s-4.3,15.5601-6.62,19.36
	s-6.8101,8.71-3.73-0.78h-0.01V1088.8101z M1093.7648,1065.91c0,0-10.64,0.1801-11.96,0.84s-1.8199,1.99-3.3101,6.62
	s-9.1,29.13-10.76,33.4301c-1.65,4.3-2.67,7.64,0.8199,6.13c3.49-1.5,22.6801-30.63,25.66-37.41
	S1097.6147,1066.05,1093.7648,1065.91"/>
<circle class="st2" cx="1061.7548" cy="1102.76" r="2.9"/>
<path class="st1" d="M927.3047,825.71c0,0-0.15-6.81-6.68-10.54c-6.54-3.73-15.41-6.07-19.05-7.66s-5.14,0.28-4.2,1.4
	c3.43,4.11,6.91,5.7,8.31,6.91s1.31,5.6-0.47,6.35s-5.86,1.63-10.64-1.03c-4.2-2.33-5.6-0.93-4.67,1.21
	c0.61,1.39,6.91,4.85,6.82,7.1c-0.09,2.24-2.24,4.95-5.14,4.76c-2.89-0.19-2.57,2.54-1.31,3.27c3.92,2.24,7.28,3.08,7.28,3.08
	l29.74-14.85L927.3047,825.71z"/>
<circle class="st2" cx="921.6448" cy="847.28" r="17.45"/>
<path class="st3" d="M922.7048,824.21c11.48,1.73,19.75,13.19,17.96,24.89c-1.98,12.95-12.96,21.24-25.54,19.28
	c-12.51-1.95-20.74-13.06-19.02-25.34c1.71-12.19,14.33-21.42,26.59-18.83H922.7048z M920.4048,839.56
	c-0.96,5.85,2.97,12.05,8.23,12.98c4.2,0.75,8.27-2.41,9.13-7.07c0.97-5.26-3.27-11.54-8.36-12.38c-4.74-0.78-8.23,1.72-9.01,6.46
	h0.01V839.56z M917.4847,851.51c0.41-2.53-1.3-5.25-3.55-5.62c-2.27-0.38-4.37,1.18-4.68,3.47c-0.35,2.64,1.32,5.09,3.75,5.47
	c2.23,0.35,4.11-1.04,4.48-3.31V851.51z"/>
<path class="st2" d="M1174.4547,916.34c0,0,26.98,18.54,36.39,37.88c3.62,4.08,7.9399,0.66,6.8101-2.79
	c-1.47-4.51-7.55-12.9-14.3199-18.93c-11.83-10.54-28.88-16.16-28.88-16.16 M1219.7047,982.81c0,0,5.92-14.3,2.36-19.27
	c-2.15-3.01-6.4399-0.35-4.62,2.26C1220.1947,969.74,1219.4747,978.87,1219.7047,982.81"/>
<path class="st10" d="M563.8348,924.18c22.44,2.14,35.85,4.78,53.27,10.18c6.43,2,12.97,3.67,19.23,6.18
	c1.2,0.48,2.39,1.02,3.51,1.68c0.75,0.44,1.16,1.21,0.81,2.13c-0.27,0.73-0.89,1.15-1.64,1.16c-1.17,0.01-2.37,0-3.52-0.2
	c-12.34-2.11-24.65-4.39-37.01-6.35c-10.98-1.74-22.05-2.31-33.19-2.04c-23.86,0.57-47.28,4.24-70.45,9.67
	c-9.89,2.32-19.59,5.44-29.01,9.29c-12.81,5.24-25.29,11.16-37.16,18.33c-11.03,6.66-22.31,12.87-33.61,19.06
	c-2.01,1.1-4.09,1.74-6.43,1.64c-4.19-0.18-7.28-1.99-8.81-5.96c-1.56-4.02-0.72-7.66,2.2-10.82c1.3-1.41,2.94-2.37,4.63-3.24
	c12.27-6.36,24.45-12.89,36.61-19.46c18.48-9.98,37.89-17.56,58.22-22.96c13.55-3.6,27.32-5.71,41.18-7.01
	c13.62-1.27,24.48-2.47,41.17-1.28 M655.5748,1059.3199c-20.21-1.04-39.35-3.83-58.2-8.5601c-10.77-2.7-21.68-4.87-32.18-8.59
	c-9.16-3.24-17.95-7.34-26.44-12.02c-6.63-3.65-8.32-11.39-4.31-17.73c2.75-4.35,8.65-6.33,14.11-4.71c3.55,1.05,6.73,2.9,9.86,4.8
	c9.9002,6.0333,20.4763,10.88,31.51,14.4399c8.21,2.65,16.32,5.59,24.51,8.3c9.66,3.2,19.46,5.79,29.52,7.46
	c14.11,2.34,28.21,4.65,42.52,5.2c10.86,0.42,21.73,0.8199,32.6,0.6899c7.77-0.1,15.6-0.26,23.28-1.8199
	c0.46-0.09,0.93-0.1899,1.4-0.2c0.75-0.01,1.4,0.24,1.75,0.96c0.42,0.86,0.14,1.61-0.45,2.27c-0.74,0.83-1.74,1.22-2.76,1.52
	c-2.84,0.8101-5.66,1.72-8.55,2.33c-10.88,2.3-21.84,3.98-32.98,4.4c-6.13,0.23-12.2,1.4301-18.36,1.48c-0.83,0-1.66,0.2-2.47,0.14
	c-8.38-0.6-16.78,0.3101-24.34-0.36L655.5748,1059.3199z M278.4148,1132.4399c-3.08-0.11-6.15-0.28-9.14-1.11
	c-0.81-0.22-1.71-0.42-1.74-1.46c-0.03-1.17,0.9-1.58,1.85-1.8199c0.68-0.17,1.41-0.3101,2.1-0.27c8.45,0.51,16.73-1.15,25.05-2.14
	c21.13-2.51,42.17-5.72,63.09-9.5601c8.83-1.62,17.62-3.5601,26.33-5.74c16.51-4.13,33.11-8.05,49.12-13.9301
	c14.31-5.26,28.74-10.22,42.68-16.45c4.76-2.12,18.74-10.83,21.05-12.85c4.61-4.01,10.47-3.6,14.5,0.9399
	c4.48,5.05,2.77,13.83-3.6,15.99c-11.75,7.24-34.27,15.3-43.71,18.41c-9.09,3-18.24,5.85-27.41,8.59
	c-9.86,2.95-19.9,5.17-29.99,7.1899c-15.89,3.1801-31.78,6.33-47.86,8.34c-16.41,2.05-32.87,3.7-49.39,4.66
	c-10.97,0.63-21.94,1.1801-32.93,1.2L278.4148,1132.4399z M470.3448,1161.17c-7.23-1.21-14.47-2.28-21.53-4.22
	c-4.89-1.35-9.76-2.72-13.72-6.28c-4.71-4.23-4.11-8.8199,1.49-11.77c3.56-1.88,7.08-2.38,10.92-1.33
	c7.86,2.14,15.74,4.22,23.61,6.36c13.13,3.5699,26.49,5.95,39.94,7.92c0.47,0.0699,0.94,0.12,1.41,0.15
	c16.4,0.8199,32.73,2.85,49.17,2.9399c10.97,0.0601,21.94,0.0601,32.91-0.88c10.83-0.92,21.64-2,32.4-3.47
	c11.6-1.58,23.06-3.85,34.42-6.71c4.24-1.0699,8.52-1.97,12.79-2.89c1.15-0.25,2.34-0.35,3.51-0.4301
	c1.03-0.0699,2.3-0.35,2.66,1.05c0.32,1.24-0.69,1.92-1.58,2.51c-2.88,1.9-6.03,3.25-9.25,4.4301c-9.33,3.42-18.82,6.55-28.58,8.24
	c-18.37,3.1801-36.66,7.1801-55.38,7.89c-10.38,0.4-20.75,0.86-31.14,1.03c-10.51,0.17-21.01,0.23-31.52-0.09
	c-4.35-0.13-39.44-2.26-52.51-4.46h-0.02L470.3448,1161.17z M413.7448,761.99c-9.99-0.96-19.98-2.08-29.99-2.82
	c-9.19-0.68-38.01-0.86-43.21-0.88c-13.23-0.05-26.44,0.17-39.66,0.73c-9.59,0.41-19.06,1.62-28.57,2.53
	c-2.7,0.26-5.36,0.91-8.03,1.37c-1.08,0.19-2.25,0.35-2.76-0.89c-0.61-1.47,0.52-2.16,1.6-2.71c2.86-1.45,5.93-2.34,8.98-3.29
	c14.73-4.6,29.9-6.94,45.15-8.88c12.56-1.6,25.17-2.13,37.81-2.56c14.68-0.5,29.31,0.56,43.91,1.7c7.42,0.58,14.84,1.11,22.26,1.66
	c1.66,0.12,3.3,0.25,4.89,0.78c3.15,1.06,5.12,3.81,5,6.96c-0.12,3.12-2,5.32-5.33,6.26c-1.16,0.33-2.33,0.36-3.52,0.31
	c-2.83-0.12-5.67-0.27-8.5-0.4c0,0.04,0,0.08-0.01,0.11L413.7448,761.99z M413.6147,1218.91c19.48-0.72,38.9-2.09,58.18-5.0601
	c10.28-1.58,20.51-3.38,30.58-6.04c3.55-0.9399,7.04-2.01,10.48-3.28c7.75-2.84,15.68-5.24,23.02-9.15
	c3.08-1.64,6.27-1.6801,9.61-0.6801c4.56,1.35,6.49,6.21,3.27,10.3101c-4.74,6.04-11.24,8.8-18.07,11.22
	c-9.85,3.49-20.12,5.14-30.38,6.8199c-15.29,2.5-30.67,3.88-46.15,4.48c-6.04,0.23-25.4-0.1899-29.02-0.4301
	c-7.16-0.48-14.4-0.5601-21.46-2.14c-2.91-0.65-5.59-1.88-7.94-3.75c-0.46-0.37-0.93-0.86-0.79-1.49c0.19-0.89,1.01-0.9,1.7-0.88
	c2.01,0.0601,13.33,0.21,16.98,0.0699L413.6147,1218.91z M726.4747,683.73c0.15-3.74,1.6-5.62,4.29-5.87
	c2.81-0.26,5.12,1.46,5.67,4.7c0.96,5.71,1.69,11.46,2.48,17.19c2.2,15.99,6.69,31.42,11.52,46.76
	c3.31,10.49,7.06,20.84,11.42,30.91c3.99,9.2,8.56,18.17,13.59,26.88c6.38,11.05,12.65,22.17,20.16,32.52
	c4.44,6.12,9,12.14,13.98,17.85c4.5,5.16,9.05,10.37,14.45,15.51c1.14,1.35,2.47,2.53,3.7,3.8c0.34,0.36,0.54,0.8,0.33,1.29
	c-0.28,0.65-0.87,0.76-1.48,0.65c-1.34-0.24-2.39-1.08-3.3-1.99c-4.19-3.26-10.82-8.21-14.96-13.11c-3.2-3.79-6.81-7.19-10.13-10.88
	c-10.82-12.02-19.49-25.51-27.87-39.24c-5.3-8.69-10.15-17.62-14.67-26.72c-4.99-10.06-9.16-20.5-12.93-31.08
	c-4.69-13.14-9.04-26.39-11.93-40.07c-1.88-8.92-3.06-17.94-4.25-26.96c-0.11-0.82-0.06-1.65-0.08-2.16v0.02L726.4747,683.73z
	 M537.4548,1255.35c-4.47-1.47-6.72-5.3-6.09-8.51c0.84-4.3,4.1-5.92,7.63-5.92c4.2,0.1899,26.39,3.33,34.18,3.67
	c8.85,0.39,17.7,1.09,26.55,1.08c8.6-0.02,17.22,0.53,25.81-0.63c5.53-0.75,10.91-2.0699,16.2-3.75
	c8.22-2.61,16.32-5.5699,23.98-9.6c0.1-0.05,0.21-0.11,0.31-0.16c2.48-1.17,4.07-1.1,4.78,0.21c0.67,1.23-0.06,2.8199-2.17,4.36
	c-1.62,1.1801-3.29,2.3199-5.05,3.28c-14.29,7.85-29.29,13.64-45.57,15.85c-24.05,3.74-49.13,3.5601-57.5,3.5
	c-2.11-0.01-13.79-0.91-23.06-3.37V1255.35z M346.2248,809.07c-0.2,2.08-1.18,3.81-2.65,5.25c-10.05,9.83-17.69,21.51-25.44,33.09
	c-8.48,12.67-16.45,25.67-24.12,38.84c-6.95,11.93-14.42,23.61-19.38,36.6c-0.08,0.22-0.18,0.44-0.28,0.65
	c-0.35,0.76-0.68,1.64-1.73,1.44c-1.19-0.23-1.44-1.3-1.25-2.22c0.75-3.7,1.58-7.39,2.46-11.06c2.08-8.68,5.94-16.68,9.49-24.8
	c7.45-17.02,16.14-33.41,25.49-49.44c6.44-11.05,13.89-21.41,22.57-30.84c1.2-1.31,2.42-2.62,3.95-3.54c2.55-1.52,5.21-1.5,7.74,0
	c2.24,1.32,3.08,3.48,3.15,6.03 M706.2148,777.03c0.25-4.06,2.55-6.68,5.79-6.97c2.99-0.27,5.83,1.84,6.65,5.22
	c0.89,3.67,1.57,7.39,2.3,11.1c4.14,20.9,12.03,40.29,24.1,57.83c6.28,9.13,13.21,17.79,21.16,25.65
	c7.49,7.41,15.27,14.44,23.5,20.99c3.6,2.87,7.44,5.43,11.17,8.13c0.57,0.42,1.19,0.78,1.72,1.25c0.45,0.4,0.71,0.95,0.38,1.58
	c-0.32,0.6-0.91,0.75-1.51,0.7c-1.44-0.13-2.72-0.79-3.98-1.43c-4.53-2.31-8.92-4.85-13.18-7.64c-13.41-8.8-25.46-19.19-36.16-31.11
	c-18.55-20.66-31.61-44.34-38.79-71.21c-0.95-3.54-1.85-7.09-2.75-10.63c-0.32-1.27-0.47-2.56-0.4-3.45L706.2148,777.03z
	 M247.7148,1022.27c-13.19-1.07-27.48-2.7-41.67-5.27c-3.72-0.67-7.45-1.3-11.05-2.48c-1.1219-0.3671-2.204-0.8462-3.23-1.43
	c-0.99-0.57-1.54-1.51-1.08-2.7c0.46-1.2,1.51-1.54,2.62-1.21c5.17,1.13,6.38,1.23,10.47,1.79c0.82,0.11,5,0.65,5.82,0.73
	c13.88,1.28,26.14,2.41,40.08,2.58c5.77,0.07,11.55-0.65,17.33-0.77c14.54-0.94,23.99-2.8,38.19-5.43
	c9.55-2.19,11.69-2.89,17.56-4.23c3.34-0.76,6.69-1.5,10.06-2.06c3.19-0.53,5.83,0.93,7.02,3.56c1.71,3.76-0.44,7.04-4.89,8.16
	c-6.12,1.28-10.57,1.84-21.33,4.07c-13.72,2.04-22.31,3.29-35.71,4.38c-9.61,0.78-19.34,0.74-30.2,0.31L247.7148,1022.27z
	 M600.5547,1380.62c4.18,0.2,7.84,0.37,11.5,0.55c1.66,0.08,3.29,0.33,4.77,1.17c2.28,1.29,3.33,3.42,2.89,5.9301
	c-0.4,2.3199-2.36,4.0699-4.92,4.41c-1.83,0.24-3.54-0.27-5.17-0.97c-2.87-1.25-5.89-1.5699-8.97-1.83
	c-15.14-1.28-29.93,0.78-44.55,4.53c-19.92,5.1-38.77,12.84-56.64,22.98c-6.79,3.85-13.19,8.3-19.31,13.15
	c-0.83,0.66-1.56,1.47-2.66,1.6899c-1.12,0.22-1.89-0.61-1.47-1.67c0.53-1.34,1.56-2.35,2.57-3.35
	c7.17-7.0699,14.95-13.4,23.43-18.83c22.64-14.5,47.32-23.45,73.95-27.03c8.33-1.12,16.7-1.51,24.57-0.71v-0.02L600.5547,1380.62z
	 M670.9147,687.44c-0.07,2.52-1.61,4.67-4.18,5.42c-2.62,0.76-6.7-0.79-9.04-4.03c-2.99-3.79-24.91-29.73-30.44-35.7
	c-2.49-2.68-7.61-7.43-10.2-10.02c-10.15-10.19-16.33-18.1-24.32-30.94c-5.88-9-10.13-19.33-13.87-29.46
	c-0.49-1.34-0.92-2.69-1-4.12c-0.06-1.01,0.11-1.96,1.28-2.2c0.99-0.21,1.52,0.47,1.87,1.28c0.56,1.3,1.02,2.66,1.66,3.92
	c7.32,14.04,11.27,20.66,18.69,30.67c4.98,5.84,11.73,13.74,17.14,19.22c7.39,7.49,15.29,14.43,22.86,21.72
	c0.68,0.66,19.19,19.24,27.02,28.58c1.41,1.69,2.52,3.42,2.53,5.68L670.9147,687.44z M821.8948,772.34
	c-0.54,0.16-1.52-1.86-2.03-2.84c-10.27-19.5-16.21-40.29-18.3-62.2c-0.02-0.24-0.03-0.47-0.03-0.71c-0.2-5.83,1.75-7.34,7.56-6.21
	c16.97,3.33,33.02,9.23,48.18,17.43c15.03,8.13,29.18,17.56,40.71,30.42c0.71,0.79,1.35,1.64,1.94,2.51
	c0.14,0.21,0.04,0.7-0.13,0.95c-0.21,0.31-0.64,0.31-0.96,0.11c-0.49-0.32-0.97-0.67-1.41-1.06c-11.88-10.61-25.67-18.1-40.17-24.33
	c-11.21-4.82-22.76-8.68-34.75-11.08c-3.01-0.6-6.05-1.08-9.1-1.42c-2.39-0.26-2.74,0.16-2.59,2.49c0.8,12.29,2.24,24.48,5.67,36.36
	c1.8,6.24,3.17,12.62,5.56,18.69c0.07,0.17,0.44,0.82-0.15,0.88L821.8948,772.34z"/>
<path class="st10" d="M595.6047,999.08c-5.85-1.04-8.1-1.57-13.72-3.43c-18.82-6.82-37.04-14.96-54.48-24.82
	c-3.61-2.04-7.2-3.95-10.6-6.31c-1.81-1.2-3.4-2.44-5.75-4.3c-2.07-1.43-3.63-4.97-2-7.63c1.63-2.65,4.91-3.28,7.7-1.24
	c1.7,1.25,4.22,3.56,5.91,4.83c3.4,2.56,5.64,4.53,9.24,6.79c18.47,11.58,38.07,21,57.94,29.88c4.17,1.53,5.91,2.26,10.48,3.02
	c0.85,0.26,1.53,0.45,1.72,1.32c0.11,1.02-0.12,1.62-1.06,2c-1.21,0.53-3.03,0.28-5.4-0.12h0.02V999.08z M536.6647,862.71
	c15.26,1.12,29.52,3.41,43.55,7.54c13.87,4.08,27.23,9.38,40.44,15.14c0.97,0.42,1.9,0.95,2.8,1.51c0.62,0.38,1.13,1,0.88,1.77
	c-0.31,0.97-1.2,1.08-2.05,0.93c-0.93-0.16-1.84-0.41-2.74-0.69c-6.99-2.17-13.98-4.35-20.96-6.55c-12.18-3.84-24.6-6.74-37.15-9.03
	c-9.3-1.69-18.72-2.38-28.16-2.87c-1.41-0.07-2.84-0.07-4.18-0.63c-1.95-0.81-2.92-2.29-2.69-4.09c0.25-2,1.62-3.28,3.92-3.3
	C532.6846,862.42,535.0447,862.63,536.6647,862.71 M802.6448,1444.97c-12.27-1.0699-20.92-3.36-31.1-6.41
	c-9.16-2.74-17.95-6.62-27.22-9.02c-1.71-0.4399-3.45-0.79-5.15-1.28c-2.98-0.85-4.65-3.29-4.03-5.74c0.64-2.51,3.19-3.91,6.26-3.05
	c6.03,1.6899,11.99,3.58,17.74,6.11c10.71,4.71,21.61,8.9301,32.78,12.4c7.8,2.42,15.78,4.04,24.03,3.63
	c0.72-0.04,1.52-0.08,1.75,0.79c0.23,0.84-0.43,1.3101-1.07,1.61c-2.07,0.96-4.31,1.28-6.56,1.3c-2.48,0.01-4.95-0.2-7.43-0.3199
	L802.6448,1444.97z M796.8748,968.66c-1.66-0.33-3.29-0.6-4.9-0.98c-12.4196-2.8837-24.644-6.5511-36.6-10.98
	c-9.44-3.49-18.66-7.36-27.08-12.96c-5.4-3.59-10.43-7.72-16.08-10.98c-2.47-1.43-2.96-4.02-1.48-6.02
	c1.55-2.09,3.73-2.08,6.13-0.11c8.29,6.84,16.79,13.4,26.37,18.4c5.66,2.96,11.63,5.22,17.51,7.67c11.99,5,24.11,9.64,36.66,13.07
	c0.34,0.09,0.7,0.13,1.03,0.26c0.57,0.22,1.06,0.57,0.98,1.28c-0.07,0.68-0.59,1-1.17,1.16c-0.45,0.12-0.93,0.13-1.37,0.18V968.66z
	 M754.1348,917.38c-1.79-0.55-3.98-1.1-6.07-1.9c-14.11-5.43-27.45-12.41-38.98-22.17c-10.18-8.62-20.17-17.51-29.55-27.04
	c-0.33-0.34-0.7-0.65-0.97-1.03c-0.91-1.28-1.1-2.65-0.08-3.93c1.06-1.34,2.47-1.79,4.11-1.13c1.23,0.49,2.22,1.34,3.1,2.32
	c8.4,9.32,17.79,17.66,26.93,26.2c6.72,6.28,14.46,11.43,22.44,16.1c5.92,3.46,11.91,6.8,18.34,9.28c0.66,0.25,1.31,0.56,1.93,0.9
	c0.72,0.41,1.53,0.88,1.05,1.91C756.0148,917.68,755.2247,917.56,754.1348,917.38 M568.3248,1375.42
	c-2.04-0.0601-3.54-1.11-4.07-2.71c-0.55-1.66,0-3.01,1.24-4.14c0.89-0.8199,1.99-1.25,3.14-1.58c2.05-0.58,4.08-1.2,6.15-1.67
	c14.64-3.33,28.34-8.98,41.15-16.77c6.76-4.11,13.42-8.38,20.14-12.55c0.9-0.5601,1.86-1.02,2.83-1.4301
	c0.59-0.25,1.18-0.04,1.49,0.5699c0.25,0.47,0.08,0.9301-0.23,1.3101c-0.22,0.28-0.47,0.53-0.75,0.75
	c-11.6,8.9301-23.06,18.08-35.96,25.12c-10.52,5.74-21.76,9.74-33.35,12.74c-0.68,0.1801-1.38,0.28-1.8,0.37h0.02L568.3248,1375.42z
	 M379.2548,836.46c0.43,0.85-1.88,1.63-2.83,2.03c-8.81,3.76-17.61,7.57-25.61,12.9c-5.4,3.6-10.61,7.5-15.91,11.26
	c-0.77,0.54-1.53,1.14-2.38,1.5c-1.07,0.45-2.12,0.21-2.83-0.79s-0.58-2.03,0.19-2.93c0.46-0.53,1.01-1.01,1.59-1.4
	c7.92-5.37,15.64-11.09,24.36-15.15c6.22-2.89,12.53-5.58,19.24-7.17c1.28-0.3,3.7-1.22,4.19-0.26h-0.01V836.46z M358.9748,1003.99
	c-4.43-0.4-8.44-4.65-7.97-8.45c0.41-3.28,4.93-6.44,8.87-6.18c4.36,0.28,7.7,3.93,7.32,7.99c-0.38,3.95-4.17,7.02-8.22,6.65
	V1003.99z M686.8948,1346.49c-0.3,1.37-1.49,1.75-2.54,2.24c-4.38,2.0601-8.75,4.11-13.15,6.13c-2.79,1.28-5.6,2.51-8.41,3.74
	c-2.05,0.9-4.08,1.75-5.44,3.75c-0.83,1.23-2.19,1.85-3.73,1.1899c-1.31-0.5601-2.04-1.64-2.06-3.05c-0.02-1.63,1.01-2.51,2.45-3.1
	c9.28-3.79,18.55-7.62,27.84-11.39c1.08-0.4399,2.24-0.74,3.4-0.92c0.92-0.14,1.58,0.35,1.64,1.39L686.8948,1346.49z M806.5547,1452
	c-0.17,1.59-1.16,2.5601-2.54,3.13c-8.31,3.41-16.09,7.91-24.3,11.51c-1,0.4399-2.39,1.66-3.14,0.39c-0.77-1.3,0.98-1.89,1.88-2.5
	c6.16-4.17,12.35-8.27,18.52-12.4301c1.37-0.92,2.61-2.02,3.99-2.9301c1.27-0.84,2.68-0.9,4.03-0.14
	c1.13,0.64,1.61,1.6801,1.56,2.96L806.5547,1452z M519.2148,1251.79c-3.06,0.03-5.04-1.42-6.21-4c-0.99-2.1801-0.29-4.23,1.73-5.48
	c2.91-1.79,8.12-1.04,10.42,1.5c1.43,1.5699,1.57,3.37,0.32,5.14C523.9247,1251.17,521.8148,1251.7101,519.2148,1251.79
	 M522.0748,1015.25c-3.26-0.26-5.46-3.56-4.33-6.6c0.75-2.02,1.97-3.76,3.92-4.8c1.58-0.84,3.19-0.77,4.64,0.33
	c1.33,1,1.88,2.39,1.53,4.04c-0.29,1.37-0.57,2.77-1.06,4.08c-0.77,2.05-2.62,3.13-4.7,2.96V1015.25z M673.8047,708.92
	c-2.97-0.21-5.55-3.11-5.32-5.98c0.22-2.78,2.74-4.8,5.69-4.56c2.99,0.24,5.32,2.83,5.13,5.68
	C679.1147,706.85,676.5547,709.11,673.8047,708.92 M421.5448,1143.74c-1.34-0.0601-2.57-0.4399-3.56-1.37
	c-1.01-0.9399-1.52-2.1-1.15-3.51c0.49-1.87,2.25-3,5-3.22c2.38-0.1899,3.97,0.54,4.79,2.22c0.9,1.85,0.37,3.8199-1.38,4.95
	c-1.12,0.73-2.38,1-3.72,0.9301H421.5448z M625.9948,1393.5699c-2.57-0.16-4.47-2.36-4.33-5.01c0.13-2.65,2.28-4.47,4.99-4.22
	c2.59,0.23,4.42,2.48,4.16,5.11c-0.2211,2.4503-2.3548,4.278-4.81,4.12H625.9948z M523.0848,867.32c-0.25,2.33-2.37,4.12-4.63,3.9
	c-2.37-0.23-4.43-2.61-4.19-4.85c0.22-2.19,2.52-4.1,4.69-3.92c2.34,0.2,4.38,2.6,4.14,4.88h-0.01V867.32z M357.3347,793.13
	c-0.07,2.42-2.26,4.64-4.47,4.54s-3.75-2.12-3.61-4.74c0.14-2.63,1.85-4.47,4.06-4.37c2.11,0.1,4.09,2.34,4.02,4.56V793.13z
	 M559.0848,1196.78c-2.27-0.04-4.28-1.88-4.24-3.87c0.04-1.8,2.16-3.75,4.04-3.72c1.95,0.04,4.31,2.55,4.23,4.5
	c-0.08,1.8101-1.8,3.13-4.03,3.08L559.0848,1196.78z M709.8547,759.09c-0.31,2.01-1.92,3.63-3.37,3.4c-1.7-0.28-3.54-2.98-3.31-4.86
	c0.22-1.79,1.93-2.99,3.85-2.69C708.9247,755.2401,710.1647,757.0601,709.8547,759.09 M508.8148,869.86
	c-1.6-0.1-3.04-1.79-2.91-3.43c0.12-1.52,1.62-2.73,3.24-2.6c1.58,0.13,2.76,1.53,2.67,3.18S510.3548,869.96,508.8148,869.86
	 M732.9247,653.97c0,1.66-1.21,3.03-2.71,3.1c-1.65,0.08-3.04-1.45-2.94-3.21c0.09-1.61,1.41-2.92,2.92-2.91
	c1.55,0,2.74,1.33,2.73,3.03L732.9247,653.97z M730.2648,665.87c1.59,0,3.03,1.3,3.05,2.77c0.02,1.55-1.37,2.84-2.98,2.76
	c-1.6-0.07-2.93-1.44-2.86-2.95C727.5447,667.02,728.7848,665.87,730.2648,665.87 M730.7448,1420.98c-0.03,1.62-1.37,2.98-2.92,2.96
	c-1.44-0.02-2.68-1.3-2.67-2.75c0.01-1.52,1.43-2.92,2.97-2.9399c1.5-0.02,2.64,1.1801,2.61,2.73H730.7448z M316.7548,697.36
	c-0.13,1.44-1.49,2.61-2.91,2.51c-1.45-0.1-2.6-1.46-2.48-2.91c0.12-1.44,1.48-2.61,2.91-2.51
	C315.7348,694.56,316.8848,695.91,316.7548,697.36 M322.2148,695.37c0.08-1.29,1.26-2.36,2.56-2.35c1.47,0.02,2.86,1.6,2.67,3.06
	c-0.16,1.25-1.43,2.24-2.75,2.13C323.2747,698.1,322.1147,696.78,322.2148,695.37 M336.6348,694.52c0.01,1.37-1.06,2.43-2.45,2.34
	c-1.32-0.08-2.19-0.75-2.31-2.13c-0.12-1.29,1.01-2.52,2.29-2.58c1.32-0.07,2.46,1.02,2.48,2.37H336.6348z M702.3948,919.72
	c1.3,0,2.59,1.21,2.5,2.46c-0.1,1.4-1,2.14-2.33,2.16c-1.39,0.01-2.13-0.86-2.21-2.24c-0.08-1.35,0.82-2.38,2.03-2.38H702.3948z
	 M671.4847,857.21c0.03,1.13-1.1,2.28-2.24,2.16c-1.17-0.12-1.96-0.79-1.93-2.03c0.03-1.23,0.84-1.85,2.03-1.93
	c1.15-0.08,2.11,0.75,2.14,1.79L671.4847,857.21z M557.1948,1374.73c-1.03-0.05-1.69-0.6801-1.71-1.76
	c-0.03-1.23,0.68-2.03,1.9-2.15c1.06-0.1,1.84,0.42,2.02,1.54c0.18,1.14-0.9,2.33-2.2,2.37H557.1948z M327.4148,866.9
	c-0.3,1.16-1.05,1.74-2.25,1.59c-0.92-0.12-1.5-0.73-1.31-1.67c0.24-1.14,1.05-1.78,2.25-1.65
	C327.0547,865.28,327.4348,865.9501,327.4148,866.9"/>
<circle class="st10" cx="527.9348" cy="1061.92" r="9.42"/>
<path class="st10" d="M349.0348,689.85c0,0-2.73-0.15-3.95,2.89s2.58,4.25,3.8,4.25s37.81-2.63,48.9-2.79
	c11.09-0.15,42.99-0.4,50.88-0.55c7.9-0.15,10.01,0.02,10.22-1.58c0.16-1.23-0.33-2.06-2.63-2.06s-22.45-0.07-37.18-0.98
	s-33.6-1.15-70.05,0.83h0.01L349.0348,689.85z"/>
<path class="st3" d="M1003.2947,0h-24.65c-0.52,0-0.98,0.34-1.14,0.84l-27.56,86.89c-0.25,0.77,0.33,1.56,1.14,1.56h16.85
	c0.53,0,1-0.35,1.15-0.86L974.4548,70c0.1506-0.5097,0.6185-0.8596,1.15-0.86h30.34c0.53,0,1,0.35,1.15,0.86l5.37,18.43
	c0.15,0.51,0.62,0.86,1.15,0.86h17.11c0.8101,0,1.39-0.79,1.14-1.56l-27.4301-86.89C1004.2781,0.3417,1003.8171,0.0021,1003.2947,0
	 M980.7748,53.83c-0.8,0-1.37-0.77-1.15-1.53l10.14-34.69h2.17l10.02,34.69c0.22,0.77-0.35,1.53-1.15,1.53H980.7748z
	 M790.2347,534.42c20.29,1.06,40.57,2.33,60.83,3.82c4.54,0.33,8.39-3.25,8.38-7.8c-0.37-125.95-0.75-251.91-1.12-377.86
	c-0.011-4.3111-3.5089-7.8-7.82-7.8h-60.64c-4.33,0-7.83,3.51-7.82,7.84l0.78,374.03c0,4.15,3.26,7.55,7.4,7.77L790.2347,534.42z
	 M564.2148,476.9c5.63,8,11.67,16.23,16.84,22.84c8.89,11.37,17.53,21.5,26.25,30.72c22.13-0.18,44.26-0.1,66.39,0.24
	c3.54,0.05,6.67-2.28,7.63-5.69c21.55-76.68,43.02-153.3,64.41-230.3c1.96-47.22,3.91-94.47,5.86-141.74
	c0.18-4.44-3.37-8.15-7.81-8.15l-58.26-0.03c-4.14,0-7.57,3.23-7.81,7.36c-2.81,48.01-5.62,96-8.45,143.99
	c-12.95,49.61-25.92,99.2-38.93,148.88c-13.08-50.09-26.13-100.13-39.15-150.22c-2.78-47.53-5.56-95.08-8.33-142.64
	c-0.2385-4.1383-3.6648-7.3716-7.81-7.37h-59.55c-4.46,0-8.02,3.73-7.81,8.19c2.24,47.39,4.47,94.75,6.72,142.06
	C530.9648,355.89,547.5648,416.44,564.2148,476.9 M900.5748,542.3c48.05,4.37,96.01,9.94,143.85,16.74
	c4.72,0.67,8.9301-2.98,8.91-7.75c-0.0699-19.91-0.14-39.82-0.2-59.73c-0.015-3.9671-2.9899-7.2982-6.9301-7.76
	c-25.48-2.97-50.99-5.67-76.53-8.08c-0.39-107.72-0.77-215.44-1.16-323.15c-0.0165-4.3071-3.5128-7.79-7.82-7.79h-60.64
	c-4.33,0-7.83,3.52-7.82,7.85c0.41,127.31,0.83,254.63,1.24,381.94c0.01,4.0275,3.0883,7.3832,7.1,7.74V542.3z M299.0247,546.88
	c50.63-5.39,101.39-8.08,152.21-10.49c7.52-12.21,16.55-24.05,27.35-35.7l0.46-0.49c0.02-9.32,0.04-18.65,0.07-27.97
	c0.01-4.48-3.74-8.07-8.22-7.85c-35.1,1.71-70.17,3.94-105.21,6.7c0.11-33.03,0.22-66.06,0.34-99.1
	c34.42-1.89,68.87-3.43,103.34-4.61c4.1982-0.14,7.5316-3.5795,7.54-7.78c0.04-17.63,0.08-35.27,0.13-52.9
	c0.01-4.4-3.62-7.96-8.02-7.85c-34.26,0.82-68.52,1.87-102.75,3.18c0.1-28.59,0.19-57.19,0.29-85.78
	c35.08-0.61,70.17-1.1,105.26-1.47c4.33-0.05,7.8-3.6,7.73-7.93l-0.9-54.35c-0.071-4.268-3.5514-7.6906-7.82-7.69H299.6147
	c-4.31,0-7.81,3.48-7.82,7.79c-0.47,129.43-0.93,257.09-1.4,386.53c-0.02,4.65,4.01,8.28,8.64,7.78v-0.02H299.0247z M23.8348,587.8
	c44.11-7.3,88.39-11.93,132.8-17.4c70.52-12.23,104.83-59.32,104.46-150.69c0.17-46.5,0.34-93.01,0.5-139.51
	c0.82-90.8-33.1-135.05-103.77-135.42h-135.38c-4.32,0-7.82,3.5-7.82,7.82l0.12,427.5c0,4.83,4.33,8.48,9.09,7.69L23.8348,587.8z
	 M83.9648,223.6c23.11-0.47,46.22-0.91,69.35-1.3c28.35-0.83,32.21,18.72,32.14,39.95c-0.19,62.31-0.39,124.62-0.58,186.93
	c-0.11,35.91-15.62,42.93-32.35,45.31c-23.0335,2.9183-46.0379,6.0618-69.01,9.43L83.9648,223.6z M1212.0448,351.37
	c-21.1853-13.6634-42.5745-27.0082-64.16-40.03c-12.8-7.01-16.9399-14.9-16.51-31.01l-0.0601-30.98
	c-0.87-16.52,6.9-26.24,20.4399-25.81c28.96,0.95,57.9,1.99,86.84,3.1c4.4301,0.17,8.11-3.37,8.11-7.81l-0.03-66.24
	c0-4.32-3.5-7.82-7.8199-7.82h-87.29c-80.0699,0.44-96.66,61.47-96.48,112.76v2.23c0.2,59.14,17.09,92.89,56.37,114.78
	c21.8348,12.7563,43.474,25.8445,64.91,39.26c16.24,11.99,15.66,25.64,15.14,37.55c-0.09,2.16-0.1899,4.31-0.1801,6.46
	c0.01,7.06,0.02,14.12,0.04,21.18c0.03,15.51-7.6,23.52-20.42,21.53c-29.45-4.52-58.9399-8.66-88.49-12.42
	c-4.6899-0.6-8.83,3.08-8.8199,7.8c0.0699,20.26,0.13,40.52,0.2,60.79c0.0099,3.8391,2.8153,7.0984,6.61,7.68
	c30.28,4.69,60.51,9.87,90.66,15.54c62,12.21,95.9-24.64,95.95-106.88v-17.14c0-58.9-18.47-82.04-55.01-104.54L1212.0448,351.37z
	 M284.8848,15.82h-23.5c-0.66,0-1.2,0.54-1.2,1.2v71.07c0,0.66-0.54,1.2-1.2,1.2h-16.35c-0.66,0-1.2-0.54-1.2-1.2V17.02
	c0-0.66-0.54-1.2-1.2-1.2h-23.5c-0.66,0-1.2-0.54-1.2-1.2V1.2c0-0.66,0.54-1.2,1.2-1.2h68.14c0.66,0,1.2,0.54,1.2,1.2v13.42
	c0,0.66-0.54,1.2-1.2,1.2H284.8848z M362.4648,0h-24.65c-0.52,0-0.98,0.34-1.14,0.84l-27.56,86.89c-0.25,0.77,0.33,1.56,1.14,1.56
	h16.85c0.53,0,1-0.35,1.15-0.86l5.37-18.43c0.1506-0.5097,0.6185-0.8596,1.15-0.86h30.34c0.53,0,1,0.35,1.15,0.86l5.37,18.43
	c0.15,0.51,0.62,0.86,1.15,0.86h17.11c0.81,0,1.39-0.79,1.14-1.56l-27.43-86.89C363.4481,0.3417,362.9871,0.0021,362.4648,0
	 M339.9448,53.83c-0.8,0-1.37-0.77-1.15-1.53l10.14-34.69h2.17l10.02,34.69c0.22,0.77-0.35,1.53-1.15,1.53H339.9448z
	 M424.9848,74.67c0-0.66,0.54-1.2,1.2-1.2h32.35c6.12,0,8.55-3.57,8.55-7.78v-1.78c0-4.59-2.04-6.51-6.51-7.91l-20.28-6.63
	c-12.37-3.95-16.58-11.09-16.58-22.57v-3.57c0-14.29,8.42-23.21,27.17-23.21h31.33c0.66,0,1.2,0.54,1.2,1.2v13.42
	c0,0.66-0.54,1.2-1.2,1.2h-31.33c-6.38,0-8.55,3.44-8.55,7.65v1.66c0,4.59,2.04,6.63,6.76,8.16l20.28,6.89
	c10.97,3.7,16.45,10.71,16.45,21.94v3.32c0,14.41-9.18,23.85-27.3,23.85h-32.35c-0.66,0-1.2-0.54-1.2-1.2V74.67H424.9848z
	 M601.9147,89.29c-0.66,0-1.2-0.54-1.2-1.2V51.28l0.77-27.55h-1.78l-17.18,45.02c-0.18,0.46-0.62,0.77-1.12,0.77h-18.88
	c-0.5,0-0.94-0.31-1.12-0.77l-17.18-45.02h-1.66l0.77,27.55v36.81c0,0.66-0.54,1.2-1.2,1.2h-15.33c-0.66,0-1.2-0.54-1.2-1.2V1.2
	c0-0.66,0.54-1.2,1.2-1.2h22.34c0.49,0,0.94,0.3,1.12,0.76l20.75,53.32h1.91l20.88-53.32c0.18-0.46,0.62-0.76,1.12-0.76h22.22
	c0.66,0,1.2,0.54,1.2,1.2v86.89c0,0.66-0.54,1.2-1.2,1.2L601.9147,89.29z M706.4847,0h-24.65c-0.52,0-0.98,0.34-1.14,0.84
	l-27.56,86.89c-0.25,0.77,0.33,1.56,1.14,1.56h16.85c0.53,0,1-0.35,1.15-0.86L677.6448,70c0.1506-0.5097,0.6185-0.8596,1.15-0.86
	h30.34c0.53,0,1,0.35,1.15,0.86l5.37,18.43c0.15,0.51,0.62,0.86,1.15,0.86h17.11c0.81,0,1.39-0.79,1.14-1.56L707.6248,0.84
	C707.4681,0.3417,707.0071,0.0021,706.4847,0 M683.9648,53.83c-0.8,0-1.37-0.77-1.15-1.53l10.14-34.69h2.17l10.02,34.69
	c0.22,0.77-0.35,1.53-1.15,1.53H683.9648z M825.2548,58.17h2.04V1.21c0-0.66,0.54-1.2,1.2-1.2h15.2c0.66,0,1.2,0.54,1.2,1.2V88.1
	c0,0.66-0.54,1.2-1.2,1.2h-17.49c-0.43,0-0.83-0.23-1.04-0.6l-32.95-57.56h-1.91V88.1c0,0.66-0.54,1.2-1.2,1.2h-15.33
	c-0.66,0-1.2-0.54-1.2-1.2V1.21c0-0.66,0.54-1.2,1.2-1.2h17.49c0.43,0,0.83,0.23,1.04,0.6L825.2548,58.17z M893.1348,0h16.35
	c0.6627,0,1.2,0.5373,1.2,1.2v86.88c0,0.6627-0.5373,1.2-1.2,1.2h-16.35c-0.6627,0-1.2-0.5373-1.2-1.2V1.2
	C891.9348,0.5373,892.472,0,893.1348,0z"/>
</svg>
